<svg width="32" height="32" viewBox="0 0 32 32" fill="none" xmlns="http://www.w3.org/2000/svg">
<path d="M5.97086 5.24979L29.4234 1.82028C28.1132 0.685903 26.4072 0 24.543 0H7.46577C3.34157 0 0.00878906 3.34157 0.00878906 7.45698V24.5342C0.00878906 28.2363 2.70843 31.3141 6.24346 31.8944L3.14811 9.05742C2.8843 7.22835 4.16817 5.5136 5.97086 5.24979Z" fill="#0068FF"/>
<path d="M29.4237 1.82031L5.97116 5.24982C4.16846 5.51363 2.8846 7.22838 3.1484 9.05746L6.24376 31.8945C6.63947 31.956 7.05277 32 7.46607 32H24.5433C28.6675 32 32.0003 28.6584 32.0003 24.543V7.45702C32.0003 5.20585 31.0066 3.19212 29.4237 1.82031Z" fill="white"/>
<path d="M29.4234 1.82031L29.3442 1.8379C30.9535 3.24488 31.9208 5.32017 31.9208 7.45702V24.5078C31.9208 28.5881 28.5968 31.9121 24.5166 31.9121H7.45694C7.07002 31.9121 6.62154 31.8681 6.22583 31.8065L6.23462 31.8945C6.64792 31.9648 7.04364 32 7.44814 32H24.499C28.632 32 31.9911 28.6408 31.9911 24.5078V7.45702C31.9999 5.2762 31.0678 3.24488 29.4234 1.82031Z" fill="#B3B3B3"/>
<path d="M19.9349 10.6227C19.7854 10.4732 19.6183 10.3941 19.3809 10.3941C19.0643 10.3941 18.8269 10.5436 18.6862 10.8601C18.3697 10.482 17.93 10.3062 17.376 10.3062C16.7077 10.3062 16.1537 10.57 15.6876 11.0624C15.2215 11.59 15.0193 12.1968 15.0193 12.9266C15.0193 13.6565 15.2479 14.2897 15.6876 14.7909C16.1537 15.3185 16.7077 15.5472 17.376 15.5472C17.93 15.5472 18.3609 15.3713 18.6862 14.9931C18.8357 15.3097 19.0643 15.4592 19.3809 15.4592C19.6096 15.4592 19.7854 15.3713 19.9349 15.2306C20.0844 15.0899 20.1372 14.914 20.1372 14.6766V11.0976C20.1635 10.9745 20.0756 10.7722 19.9349 10.6227ZM18.3609 13.85C18.185 14.0786 17.9212 14.2017 17.6046 14.2017C17.288 14.2017 17.0242 14.0874 16.8484 13.85C16.6725 13.6213 16.5582 13.3224 16.5582 12.9442C16.5582 12.5925 16.6461 12.3023 16.8484 12.0737C17.0242 11.845 17.288 11.7219 17.6046 11.7219C17.9212 11.7219 18.185 11.8362 18.3609 12.0737C18.5367 12.3023 18.651 12.6013 18.651 12.9442C18.6247 13.296 18.5367 13.6213 18.3609 13.85Z" fill="#0068FF"/>
<path d="M21.8784 15.2745C21.7289 15.424 21.5618 15.5032 21.3244 15.5032C21.0957 15.5032 20.9199 15.4152 20.7704 15.2745C20.6209 15.125 20.5681 14.9579 20.5681 14.7205V8.31876C20.5681 8.11651 20.6297 7.94064 20.7704 7.76476C20.9199 7.61527 21.0869 7.53613 21.3244 7.53613C21.553 7.53613 21.7289 7.62407 21.8784 7.76476C22.0279 7.91426 22.0806 8.08133 22.0806 8.31876V14.7205C22.0806 14.9579 22.0279 15.1338 21.8784 15.2745Z" fill="#0068FF"/>
<path d="M26.9083 11.0888C26.4159 10.5612 25.8003 10.3325 25.0441 10.3325C24.2878 10.3325 23.6811 10.5963 23.1798 11.0888C22.7138 11.5812 22.45 12.2231 22.45 12.9794C22.45 13.7356 22.6786 14.3424 23.1798 14.87C23.6459 15.3625 24.2878 15.6263 25.0441 15.6263C25.8003 15.6263 26.4071 15.3625 26.9083 14.87C27.3744 14.3776 27.603 13.7357 27.603 13.0058C27.6382 12.2231 27.4095 11.5812 26.9083 11.0888ZM25.8355 13.85C25.6596 14.0786 25.3958 14.2017 25.0792 14.2017C24.7627 14.2017 24.4989 14.0874 24.323 13.85C24.1471 13.6213 24.0328 13.3223 24.0328 12.9442C24.0328 12.5925 24.1207 12.3023 24.323 12.0737C24.4989 11.845 24.7627 11.7219 25.0792 11.7219C25.3958 11.7219 25.6596 11.8362 25.8355 12.0737C26.0114 12.3023 26.1257 12.6013 26.1257 12.9442C26.0993 13.296 26.0114 13.6213 25.8355 13.85Z" fill="#0068FF"/>
<path d="M14.1754 10.5087C14.703 9.81403 14.9932 9.34797 14.9932 9.11054C14.9932 8.55654 14.6415 8.26636 13.9468 8.26636H10.2535C9.96328 8.26636 9.72585 8.32791 9.58515 8.46861C9.43566 8.6181 9.35652 8.78518 9.35652 8.99623C9.35652 9.22486 9.44446 9.40073 9.58515 9.52384C9.73464 9.67333 9.96328 9.7261 10.2535 9.7261H12.786L9.53239 13.9119C9.33014 14.1757 9.21582 14.4395 9.21582 14.6417C9.21582 15.2485 9.62033 15.5475 10.4381 15.5475H14.2458C14.8525 15.5475 15.1515 15.2837 15.1515 14.7912C15.1515 14.2636 14.8613 14.035 14.2458 14.035H11.4494L14.1754 10.5087Z" fill="#0068FF"/>
<path d="M12.3638 19.5566H11.405V21.5357H12.3638C12.6541 21.5357 12.8916 21.4478 13.0587 21.2455C13.2346 21.0695 13.3226 20.8057 13.3226 20.5506C13.3226 20.2603 13.2346 20.0228 13.0587 19.8557C12.8916 19.6446 12.6629 19.5566 12.3638 19.5566Z" fill="#39B54A"/>
<path d="M17.1126 21.3857C16.8223 21.3857 16.5848 21.5001 16.4177 21.7024C16.2418 21.9311 16.1538 22.195 16.1538 22.5204C16.1538 22.8459 16.2418 23.1274 16.4177 23.3385C16.5936 23.5672 16.8223 23.6551 17.1126 23.6551C17.4028 23.6551 17.6403 23.5408 17.8075 23.3385C17.9834 23.1098 18.0713 22.8459 18.0713 22.5204C18.0713 22.2038 17.9834 21.9135 17.8075 21.7024C17.6315 21.5001 17.4028 21.3857 17.1126 21.3857Z" fill="#39B54A"/>
<path d="M23.8044 16.7341H10.0424C9.57637 16.7341 9.19824 17.1123 9.19824 17.5783V25.6333C9.19824 26.0993 9.57637 26.4775 10.0424 26.4775H20.8938C20.7794 26.3631 20.7179 26.2488 20.7179 26.0993C20.7179 25.985 20.7443 25.8707 20.8058 25.7212L21.3334 24.5868L19.9089 21.0342C19.8825 20.9463 19.8473 20.8319 19.8473 20.7176C19.8473 20.5681 19.9089 20.4274 20.0496 20.3395C20.1639 20.2252 20.3134 20.1636 20.4541 20.1636C20.7706 20.1636 20.9817 20.3131 21.096 20.6297L21.9666 23.0479L22.8987 20.6297C23.013 20.3395 23.2153 20.1636 23.5406 20.1636C23.6901 20.1636 23.8308 20.2252 23.9451 20.3395C24.0595 20.4538 24.1474 20.5681 24.1474 20.7176C24.1474 20.8319 24.121 20.9463 24.0858 21.0342L21.993 26.1257C21.9314 26.2752 21.8786 26.3895 21.7907 26.4775H23.7956C24.2617 26.4775 24.6398 26.0993 24.6398 25.6333V17.5783C24.6398 17.0859 24.2617 16.7341 23.8044 16.7341ZM14.0875 22.1422C13.6478 22.5467 13.1026 22.7226 12.4607 22.7226H11.4142V24.2351C11.4142 24.4637 11.3527 24.6396 11.212 24.7627C11.0977 24.877 10.9218 24.965 10.7195 24.965C10.5173 24.965 10.3414 24.9034 10.2271 24.7627C10.1128 24.6484 10.0248 24.4461 10.0248 24.2351V19.0029C10.0248 18.5104 10.2535 18.273 10.7547 18.273H12.4167C13.1114 18.273 13.6654 18.4753 14.1315 18.8798C14.5711 19.2843 14.7998 19.8383 14.7998 20.4802C14.7822 21.2101 14.5536 21.7377 14.0875 22.1422ZM19.4692 24.2087C19.4692 24.411 19.4076 24.5604 19.2669 24.7011C19.1174 24.8506 18.9767 24.9034 18.7745 24.9034C18.4843 24.9034 18.2469 24.7539 18.1062 24.4637C17.816 24.8155 17.4115 24.9913 16.8839 24.9913C16.2771 24.9913 15.7495 24.7627 15.345 24.2966C14.9405 23.8306 14.703 23.2502 14.703 22.5555C14.703 21.8608 14.9053 21.3068 15.345 20.8144C15.7495 20.3483 16.2771 20.1197 16.8839 20.1197C17.4115 20.1197 17.7896 20.2955 18.1062 20.6473C18.2557 20.3571 18.4579 20.2076 18.7745 20.2076C18.9767 20.2076 19.1526 20.2692 19.2669 20.4099C19.4164 20.5593 19.4692 20.7 19.4692 20.9023V24.2087Z" fill="#39B54A"/>
</svg>
