<svg width="56" height="56" viewBox="0 0 56 56" fill="none" xmlns="http://www.w3.org/2000/svg">
<path d="M29.8398 15.5171L27.3577 17.9992L27.2346 18.1223L26.4452 18.9132L25.8573 19.5011L25.0695 20.2905L24.9479 20.412L24.6078 20.7552L24.4863 20.8798L23.3229 22.0416L23.1998 22.1632C22.8613 22.503 22.4764 22.7931 22.0565 23.0249C21.8511 23.1377 21.6382 23.2364 21.4195 23.3204C20.9384 23.5052 20.4319 23.6157 19.9176 23.6481C19.6031 23.67 19.2872 23.6617 18.9743 23.6235C18.29 23.5414 17.6294 23.3216 17.0323 22.9772C16.7629 22.8352 16.5131 22.6588 16.2891 22.4525C16.2399 22.4063 16.1921 22.3586 16.1444 22.3078L11.6127 17.7884L11.5157 17.6914C11.4365 17.6048 11.3669 17.5099 11.308 17.4083C11.1508 17.1466 11.0673 16.8472 11.0664 16.542C11.0664 16.4927 11.0664 16.4419 11.0664 16.3881C11.0731 16.3162 11.0839 16.2448 11.0987 16.1742C11.0987 16.148 11.111 16.1203 11.1187 16.0942L11.128 16.0603C11.1919 15.845 11.2963 15.6439 11.4357 15.4679C11.4742 15.4217 11.5142 15.3755 11.5573 15.3309L11.6373 15.2524L16.4537 10.4345L19.3775 7.51074C19.6885 7.19895 20.1063 7.01682 20.5464 7.00111C20.9866 6.9854 21.4163 7.13729 21.7488 7.4261L29.8398 15.5171Z" fill="#005BAA"/>
<path d="M21.0486 26.3622C20.6556 26.3609 20.2676 26.2743 19.9114 26.1083L18.9881 25.185L18.7604 24.9588L18.7219 24.9188L18.291 24.488L16.1367 22.3075C16.1844 22.3583 16.2321 22.406 16.2814 22.4521C16.5061 22.6593 16.757 22.8363 17.0277 22.9784C17.6247 23.3228 18.2853 23.5426 18.9696 23.6247C19.2826 23.6629 19.5984 23.6711 19.9129 23.6493C20.4273 23.6169 20.9337 23.5064 21.4148 23.3215C21.6336 23.2376 21.8464 23.1389 22.0519 23.0261C22.4718 22.7943 22.8567 22.5042 23.1952 22.1644L23.3183 22.0428L24.4816 20.881L24.6032 20.7564L24.9479 20.4132L25.0695 20.2916L25.8589 19.5022L26.4467 18.9144L27.2361 18.1235L27.3592 18.0004L32.3603 13.0023L34.4238 10.7665L34.4361 10.7542L34.5469 10.6449C34.6967 10.495 34.8746 10.376 35.0703 10.2948C35.2661 10.2137 35.476 10.1719 35.6879 10.1719C35.8999 10.1719 36.1097 10.2137 36.3055 10.2948C36.5013 10.376 36.6792 10.495 36.829 10.6449L37.9584 11.7713L37.9954 11.8082C37.7408 11.7954 37.4863 11.8354 37.248 11.9257C37.0096 12.016 36.7926 12.1547 36.6104 12.333L32.7881 16.0938L32.7496 16.14L26.1004 22.686L26.0912 22.6768L23.6414 25.085L23.6245 25.1035C23.6245 25.1127 23.5645 25.1712 23.4706 25.2574C23.1375 25.5828 22.754 25.8525 22.335 26.056C22.099 26.1681 21.8506 26.2517 21.5948 26.3053C21.4493 26.3351 21.3016 26.3536 21.1532 26.3607L21.0486 26.3622Z" fill="#ED1C24"/>
<path d="M44.0782 20.1717L43.9551 20.2964L38.5369 25.7961L32.8434 31.5743C32.6657 31.7524 32.4748 31.917 32.2725 32.0667L32.2494 32.0867L32.1663 32.1451L32.1555 32.1544C31.1631 32.8606 29.9561 33.1998 28.7411 33.1139C27.5261 33.028 26.3788 32.5223 25.4956 31.6835C25.451 31.6466 25.4094 31.6081 25.3679 31.5696L24.3892 30.591L21.6394 27.8411L20.7161 26.9178L20.5884 26.7901C20.7375 26.8134 20.8883 26.8253 21.0392 26.8255H21.167C21.3423 26.819 21.5168 26.7979 21.6886 26.7624C21.9806 26.701 22.2642 26.6049 22.5334 26.4762C22.9992 26.2501 23.4257 25.9509 23.7968 25.5899C23.8799 25.5068 23.943 25.436 23.9691 25.4083L26.0834 23.3294L26.0911 23.3401L33.3635 16.1847L33.402 16.1386L36.9335 12.6624C37.1643 12.4385 37.4652 12.3009 37.7856 12.2729C38.1059 12.2449 38.4262 12.3281 38.6924 12.5085L39.5341 13.3456L44.0751 17.8866C44.1151 17.9282 44.1536 17.9697 44.1889 18.0128C44.4404 18.3228 44.5683 18.7149 44.5478 19.1135C44.5273 19.5122 44.36 19.8891 44.0782 20.1717Z" fill="#ED1C24"/>
<path d="M26.5267 14.1517C26.4647 14.2115 26.382 14.2449 26.2958 14.2449C26.2097 14.2449 26.127 14.2115 26.065 14.1517C25.0337 13.1122 23.6317 12.525 22.1675 12.5192C20.7032 12.5135 19.2966 13.0896 18.2572 14.1209C17.2177 15.1522 16.6305 16.5542 16.6247 18.0185C16.6189 19.4827 17.1951 20.8893 18.2264 21.9288L19.9052 23.6214C19.9163 23.6323 19.9256 23.6447 19.9329 23.6584H19.9098C19.6021 23.68 19.293 23.6728 18.9866 23.6368L17.7555 22.3919C16.6016 21.2288 15.9569 19.6549 15.9634 18.0165C15.9699 16.3781 16.627 14.8094 17.7901 13.6554C18.9533 12.5015 20.5272 11.8568 22.1656 11.8633C23.804 11.8698 25.3727 12.5269 26.5267 13.69C26.5574 13.7201 26.5818 13.756 26.5984 13.7957C26.6151 13.8353 26.6237 13.8779 26.6237 13.9209C26.6237 13.9638 26.6151 14.0064 26.5984 14.046C26.5818 14.0857 26.5574 14.1216 26.5267 14.1517Z" fill="#009EDB"/>
<path d="M29.0919 16.266L28.6302 16.7276L27.8116 15.9044C27.7514 15.8426 27.7178 15.7598 27.7178 15.6735C27.7178 15.5873 27.7514 15.5045 27.8116 15.4427C27.873 15.3818 27.9559 15.3477 28.0424 15.3477C28.1289 15.3477 28.2118 15.3818 28.2732 15.4427L29.0919 16.266Z" fill="#009EDB"/>
<path d="M22.0628 23.0186H22.049C21.8503 23.1282 21.6446 23.2248 21.4334 23.3079L19.1483 20.9997C18.4549 20.3011 18.0268 19.3825 17.9378 18.4023C17.8487 17.422 18.1043 16.4413 18.6605 15.6292C18.6838 15.5905 18.7148 15.5569 18.7516 15.5306C18.7884 15.5042 18.8301 15.4857 18.8743 15.4762C18.9186 15.4667 18.9643 15.4663 19.0086 15.4751C19.053 15.4839 19.0951 15.5017 19.1323 15.5274C19.1695 15.5532 19.201 15.5862 19.2249 15.6246C19.2488 15.663 19.2646 15.7059 19.2713 15.7506C19.278 15.7953 19.2755 15.841 19.2639 15.8847C19.2522 15.9284 19.2318 15.9692 19.2037 16.0047C18.7321 16.69 18.5147 17.5184 18.5888 18.3469C18.663 19.1754 19.0242 19.952 19.61 20.5426L22.0628 23.0186Z" fill="#009EDB"/>
<path d="M27.713 17.6454L27.7007 17.6562L27.3575 17.9993L27.2468 18.1101L24.6754 15.5188C24.2108 15.0484 23.6243 14.7169 22.9817 14.5614C22.3391 14.4059 21.6659 14.4327 21.0377 14.6386C20.9963 14.6532 20.9523 14.6593 20.9085 14.6566C20.8646 14.654 20.8218 14.6426 20.7824 14.6231C20.743 14.6036 20.7079 14.5765 20.6792 14.5432C20.6505 14.51 20.6287 14.4713 20.6152 14.4295C20.6016 14.3878 20.5966 14.3437 20.6003 14.2999C20.6041 14.2561 20.6165 14.2136 20.637 14.1747C20.6574 14.1358 20.6854 14.1014 20.7194 14.0735C20.7533 14.0456 20.7925 14.0248 20.8346 14.0123C21.5786 13.7684 22.3759 13.7367 23.137 13.9207C23.898 14.1048 24.5928 14.4972 25.1432 15.0541L27.713 17.6454Z" fill="#009EDB"/>
<path d="M26.3341 19.0252L25.8725 19.4868L23.2966 16.8893C23.1478 16.734 22.9697 16.6098 22.7724 16.5241C22.5752 16.4384 22.3629 16.3929 22.1479 16.3901C21.9328 16.3874 21.7194 16.4275 21.5201 16.5082C21.3207 16.5889 21.1394 16.7084 20.9868 16.8599C20.8342 17.0114 20.7133 17.1918 20.6312 17.3906C20.549 17.5893 20.5073 17.8024 20.5085 18.0175C20.5096 18.2325 20.5536 18.4452 20.6378 18.643C20.7221 18.8409 20.8449 19.02 20.9991 19.1698L22.6533 20.8517C22.7142 20.9131 22.7484 20.9961 22.7484 21.0826C22.7484 21.169 22.7142 21.252 22.6533 21.3134C22.5916 21.3735 22.5087 21.4072 22.4225 21.4072C22.3363 21.4072 22.2535 21.3735 22.1917 21.3134L20.5313 19.6392C20.3075 19.4299 20.1282 19.1777 20.004 18.8976C19.8799 18.6175 19.8135 18.3152 19.8089 18.0089C19.8042 17.7025 19.8614 17.3984 19.9769 17.1146C20.0925 16.8309 20.2641 16.5733 20.4815 16.3574C20.6989 16.1415 20.9575 15.9716 21.2421 15.858C21.5266 15.7443 21.8311 15.6892 22.1374 15.6959C22.4437 15.7026 22.7455 15.771 23.0248 15.897C23.3041 16.023 23.5551 16.204 23.7628 16.4292L26.3341 19.0252Z" fill="#009EDB"/>
<path d="M24.9573 20.4005L24.9466 20.4113L24.608 20.7544L24.4972 20.8668L21.909 18.2647C21.8717 18.2361 21.841 18.2 21.8188 18.1587C21.7967 18.1173 21.7836 18.0717 21.7805 18.0249C21.7774 17.9781 21.7843 17.9311 21.8009 17.8872C21.8174 17.8433 21.8431 17.8035 21.8762 17.7703C21.9094 17.7371 21.9493 17.7114 21.9932 17.6949C22.0371 17.6784 22.084 17.6714 22.1308 17.6745C22.1777 17.6776 22.2233 17.6907 22.2646 17.7129C22.306 17.735 22.3421 17.7658 22.3706 17.803L24.9573 20.4005Z" fill="#009EDB"/>
<path fill-rule="evenodd" clip-rule="evenodd" d="M38.0048 41.4797L34.9857 37.1495L34.6779 36.8679H37.6555L39.6729 40.1409L39.8345 40.0086L41.0532 38.1959C41.2055 37.997 41.2733 37.746 41.2419 37.4975C41.2105 37.2489 41.0824 37.0227 40.8855 36.8679H43.6984L40.4469 41.4843V44.8296L41.0209 45.5113H37.5247L38.0171 44.8404C38.0171 43.7248 37.9771 42.5969 38.0048 41.4858V41.4797ZM29.8061 36.8633C30.0477 37.1941 30.1139 37.3111 30.1446 37.605C30.1682 37.7786 30.1476 37.9554 30.0846 38.1189L27.8395 44.6358C27.6935 44.9639 27.4752 45.2548 27.2009 45.4867H29.6522C29.475 45.338 29.3548 45.1324 29.3121 44.9051C29.2731 44.7439 29.2757 44.5755 29.3198 44.4157L29.8184 42.8692H32.6713L33.1161 44.0618C33.1612 44.182 33.1897 44.3078 33.2007 44.4357C33.2302 44.6403 33.2027 44.8491 33.1212 45.0392C33.0398 45.2292 32.9076 45.3931 32.739 45.5129H36.586C36.205 45.2089 35.8907 44.8296 35.6628 44.3988L32.8575 36.8741L29.8061 36.8633ZM32.2512 41.7428H30.2108L31.2002 38.9237L32.2512 41.7428ZM22.0352 36.871H23.9664H26.3115C26.9328 36.873 27.5281 37.1207 27.9675 37.5601C28.4069 37.9994 28.6546 38.5948 28.6566 39.2161V39.5054C28.6566 40.7949 27.5995 41.7782 26.3115 41.8136L25.242 41.8459C26.1022 41.4504 26.4607 40.4518 26.3546 39.5531C26.2684 38.8314 25.8929 38.1359 25.2774 38.1236L24.8866 38.1159V44.548C24.8832 44.6505 24.914 44.7512 24.9743 44.8343C25.0906 45.0188 25.2207 45.1942 25.3636 45.359L25.4775 45.4959H22.146C22.1967 45.4344 22.246 45.3728 22.2921 45.3082C22.3949 45.1706 22.4812 45.0213 22.5491 44.8635C22.5918 44.7714 22.6138 44.6711 22.6137 44.5696V37.6604C22.6076 37.3003 22.246 37.0956 22.0352 36.8756V36.871Z" fill="#005BAA"/>
<path fill-rule="evenodd" clip-rule="evenodd" d="M4.00462 36.8297H6.68982L8.94262 43.2926L10.8538 37.9407C10.8894 37.7828 10.8624 37.6173 10.7784 37.479C10.6722 37.2621 10.5599 37.0513 10.4537 36.8327H12.4542C12.3357 37.2698 12.1603 37.756 12.0095 38.19L9.41965 45.7147C8.71334 45.5731 7.92548 45.2931 7.31611 44.716C6.85447 44.2821 6.70059 43.7927 6.46823 43.1988L4.30776 37.4698C4.21868 37.2497 4.11589 37.0354 4 36.8281L4.00462 36.8297ZM14.7239 39.858V44.4744C14.7239 44.6622 14.767 44.6945 14.8778 44.8453L15.4071 45.5347H12.8835L13.3113 44.8837C13.4141 44.7569 13.4686 44.5977 13.4652 44.4344V37.9853L12.7588 36.8297H15.3748L19.6142 42.2909V37.9391C19.6209 37.7716 19.5661 37.6075 19.4603 37.4775C19.3187 37.2605 19.1695 37.0497 19.0279 36.8312H21.5515L21.0253 37.5206C20.9099 37.6745 20.8714 37.7052 20.8714 37.893V45.7409C19.9158 45.6162 19.0248 45.3823 18.2339 44.3698L14.7239 39.858Z" fill="#ED1C24"/>
<path d="M44.5012 39.4704L45.1875 37.4992C45.2238 37.4002 45.2456 37.2966 45.2521 37.1914C45.2481 37.1305 45.229 37.0716 45.1965 37.0201C45.164 36.9685 45.1191 36.9258 45.0659 36.896V36.8867H46.297L47.2818 39.5381C47.3224 39.6732 47.3792 39.8029 47.4511 39.9243C47.5203 40.0282 47.6031 40.1224 47.6973 40.2044V40.2398H46.1585V40.2198C46.2168 40.1959 46.2672 40.1561 46.3039 40.105C46.3406 40.0538 46.3622 39.9933 46.3662 39.9305C46.3659 39.8565 46.3529 39.7831 46.3277 39.7135L46.1739 39.2303H45.166L45.0121 39.6566C44.9794 39.7489 44.9562 39.8442 44.9428 39.9412C44.9437 39.9915 44.9598 40.0403 44.989 40.0813C45.0279 40.1341 45.0746 40.1808 45.1275 40.2198V40.2398H44.0903V40.2198C44.1884 40.1411 44.2687 40.0425 44.3258 39.9305C44.3504 39.8781 44.3766 39.8166 44.4012 39.7473C44.4258 39.6781 44.4658 39.5842 44.5012 39.4704ZM45.3152 38.7456H46.0092L45.6538 37.7346L45.3152 38.7456Z" fill="#ED1C24"/>
<path d="M47.9977 39.7278V37.4304C48.0032 37.3206 47.987 37.2108 47.95 37.1073C47.9111 37.0276 47.8529 36.9588 47.7808 36.9072V36.898H49.2657C49.4997 36.8866 49.7324 36.9399 49.9382 37.0519C50.0848 37.133 50.2026 37.2578 50.2752 37.4089C50.3325 37.5351 50.3629 37.6719 50.3644 37.8105C50.3644 38.3445 50.0566 38.6738 49.4411 38.7938L49.1211 38.823C49.0287 38.8107 48.9672 38.803 48.9364 38.803C49.0891 38.747 49.2196 38.6432 49.3086 38.5071C49.3976 38.371 49.4403 38.2098 49.4304 38.0475C49.4304 37.6105 49.2549 37.3935 48.9041 37.3935V39.6155C48.8928 39.727 48.9076 39.8395 48.9474 39.9442C48.9872 40.0489 49.0509 40.1429 49.1334 40.2187V40.2403H47.7808V40.231C47.8572 40.173 47.9174 40.0961 47.9554 40.008C47.9934 39.9198 48.008 39.8233 47.9977 39.7278Z" fill="#ED1C24"/>
<path d="M50.6276 39.7278V37.4304C50.6331 37.3206 50.6169 37.2108 50.5799 37.1073C50.541 37.0276 50.4828 36.9588 50.4106 36.9072V36.898H51.8956C52.1296 36.8866 52.3623 36.9399 52.568 37.0519C52.7147 37.133 52.8325 37.2578 52.905 37.4089C52.9617 37.5353 52.9921 37.672 52.9943 37.8105C52.9943 38.3445 52.6865 38.6738 52.071 38.7938L51.7509 38.823C51.6586 38.8107 51.5971 38.803 51.5663 38.803C51.719 38.747 51.8495 38.6432 51.9385 38.5071C52.0275 38.371 52.0702 38.2098 52.0602 38.0475C52.0602 37.6105 51.8848 37.3935 51.534 37.3935V39.6155C51.5226 39.727 51.5375 39.8395 51.5773 39.9442C51.6171 40.0489 51.6808 40.1429 51.7633 40.2187V40.2403H50.4106V40.231C50.4871 40.173 50.5473 40.0961 50.5853 40.008C50.6233 39.9198 50.6379 39.8233 50.6276 39.7278Z" fill="#ED1C24"/>
<path d="M6.40389 48.3833C6.40389 48.7326 6.55008 48.9127 6.9317 48.9127C7.08002 48.9143 7.22728 48.8876 7.36564 48.8342C7.43489 48.808 7.45489 48.8265 7.45489 48.9004V48.9373C7.45489 49.0004 7.43797 49.0235 7.36564 49.0573C7.2299 49.1121 7.08416 49.1378 6.93786 49.1327C6.41313 49.1327 6.16846 48.8973 6.16846 48.3833V47.9032C6.16846 47.3846 6.4162 47.1231 6.93786 47.1231C7.08109 47.1225 7.22312 47.1491 7.35641 47.2015C7.42873 47.2277 7.44412 47.2554 7.44412 47.3154V47.3539C7.44412 47.4293 7.41335 47.4508 7.35026 47.4231C7.21719 47.3678 7.07427 47.34 6.93016 47.3416C6.56547 47.3416 6.41005 47.5185 6.41005 47.9032L6.40389 48.3833Z" fill="#009EDB"/>
<path d="M6.93786 49.135C6.40851 49.135 6.16846 48.8965 6.16846 48.384V47.9024C6.16846 47.3761 6.42082 47.1192 6.93786 47.1192C7.0816 47.1184 7.22417 47.1451 7.35795 47.1976C7.43489 47.2253 7.4472 47.2561 7.4472 47.3146V47.3546C7.4472 47.3931 7.43797 47.4192 7.42104 47.43C7.40991 47.4359 7.39749 47.439 7.38488 47.439C7.37227 47.439 7.35985 47.4359 7.34872 47.43C7.21611 47.3751 7.07368 47.3478 6.93016 47.35C6.57316 47.35 6.41313 47.5208 6.41313 47.907V48.3887C6.41313 48.7518 6.57624 48.9134 6.93786 48.9134C7.08564 48.9146 7.23232 48.888 7.37026 48.8349C7.40565 48.8226 7.42873 48.8211 7.44258 48.8349C7.45643 48.8488 7.46413 48.8672 7.46413 48.9088V48.9457C7.46413 49.0103 7.44566 49.035 7.37334 49.0673C7.235 49.1219 7.08624 49.145 6.93786 49.135ZM6.93786 47.1253C6.42544 47.1253 6.16846 47.3792 6.16846 47.9024V48.384C6.16846 48.8919 6.41159 49.1273 6.93786 49.1273C7.0836 49.1336 7.22899 49.1084 7.3641 49.0534C7.43489 49.0211 7.45182 48.998 7.45182 48.9365V48.8995C7.45182 48.8611 7.45182 48.8395 7.43335 48.8303C7.41488 48.8211 7.3995 48.8303 7.36718 48.8303C7.22813 48.8832 7.08047 48.9098 6.9317 48.9088C6.56547 48.9088 6.40082 48.7457 6.40082 48.3779V47.9024C6.40082 47.5131 6.5547 47.3377 6.92401 47.3377C7.06862 47.336 7.21207 47.3638 7.34564 47.4192C7.35579 47.4247 7.36717 47.4276 7.37872 47.4276C7.39028 47.4276 7.40165 47.4247 7.41181 47.4192C7.4272 47.4085 7.43489 47.3854 7.43489 47.3484V47.3177C7.43489 47.2607 7.42258 47.233 7.34872 47.2069C7.21622 47.1532 7.07465 47.1255 6.9317 47.1253H6.93786Z" fill="#009EDB"/>
<path d="M7.7749 47.0969C7.7749 47.0154 7.79491 47 7.87031 47H7.90416C7.98418 47 7.99957 47.0154 7.99957 47.0969V47.7956C8.05385 47.7239 8.12569 47.6673 8.20817 47.6315C8.29065 47.5957 8.38098 47.5817 8.47044 47.5909C8.83975 47.5909 9.02595 47.7663 9.02595 48.1172V49.0112C9.02595 49.0912 9.01056 49.1066 8.93054 49.1066H8.89361C8.81359 49.1066 8.7982 49.0912 8.7982 49.0112V48.1495C8.7982 47.911 8.69203 47.8094 8.4135 47.8094C8.13498 47.8094 7.99957 47.9233 7.99957 48.2003V49.0112C7.99957 49.0912 7.98418 49.1066 7.90416 49.1066H7.87031C7.79491 49.1066 7.7749 49.0912 7.7749 49.0112V47.0969Z" fill="#009EDB"/>
<path d="M8.93069 49.1042H8.89376C8.8122 49.1042 8.79527 49.0873 8.79527 49.0058V48.144C8.79527 47.904 8.68448 47.807 8.41365 47.807C8.14282 47.807 8.00279 47.9225 8.00279 48.1948V49.0104C8.00279 49.0919 7.98587 49.1089 7.90431 49.1089H7.87046C7.79044 49.1089 7.77197 49.0904 7.77197 49.0104V47.0961C7.77197 47.0099 7.79505 46.9961 7.87046 46.9961H7.90431C7.98587 46.9961 8.00279 47.013 8.00279 47.0961V47.7793C8.05763 47.711 8.1284 47.6572 8.20888 47.6226C8.28937 47.588 8.37712 47.5736 8.46443 47.5808C8.83528 47.5808 9.02302 47.7593 9.02302 48.1102V49.0104C9.02917 49.0873 9.01225 49.1042 8.93069 49.1042ZM8.41365 47.8009C8.6891 47.8009 8.80143 47.8994 8.80143 48.144V49.0104C8.80143 49.0889 8.81528 49.1027 8.89376 49.1027H8.93069C9.00917 49.1027 9.02302 49.0889 9.02302 49.0104V48.121C9.02302 47.7747 8.83682 47.5978 8.47059 47.5978C8.38151 47.5886 8.29159 47.6025 8.20941 47.6381C8.12724 47.6736 8.05556 47.7297 8.00125 47.8009V47.8101V47.1007C8.00125 47.0207 7.9874 47.0069 7.90893 47.0069H7.87507C7.80275 47.0069 7.78274 47.0192 7.78274 47.1007V49.0104C7.78274 49.0904 7.80275 49.1027 7.87507 49.1027H7.90893C7.9874 49.1027 8.00125 49.0889 8.00125 49.0104V48.1948C7.99664 47.9178 8.12128 47.8009 8.41365 47.8009Z" fill="#009EDB"/>
<path d="M9.34766 48.5008V48.2208C9.34766 47.8007 9.56617 47.5898 10.0078 47.5898C10.4494 47.5898 10.6618 47.8099 10.6618 48.2208V48.5008C10.6618 48.9209 10.4448 49.1317 10.0078 49.1317C9.54001 49.1317 9.34766 48.9117 9.34766 48.5008ZM10.4387 48.2208C10.4387 47.933 10.3356 47.8037 10.0078 47.8037C9.68004 47.8037 9.57232 47.933 9.57232 48.2208V48.5008C9.57232 48.7886 9.68004 48.9178 10.0078 48.9178C10.3356 48.9178 10.4387 48.7886 10.4387 48.5008V48.2208Z" fill="#009EDB"/>
<path d="M10.0077 49.1355C9.55527 49.1355 9.34445 48.9339 9.34445 48.5015V48.2215C9.33818 48.1352 9.34954 48.0485 9.37784 47.9668C9.40615 47.885 9.45081 47.8099 9.5091 47.746C9.64949 47.6328 9.82792 47.5777 10.0077 47.5921C10.457 47.5921 10.6647 47.7937 10.6647 48.2261V48.5061C10.6647 48.9216 10.4509 49.1355 10.0077 49.1355ZM10.0077 47.5967C9.8294 47.5829 9.65261 47.638 9.51372 47.7506C9.45599 47.8139 9.41175 47.8883 9.3837 47.9692C9.35566 48.0502 9.3444 48.136 9.35061 48.2215V48.5015C9.35061 48.9293 9.55989 49.1278 10.0077 49.1278C10.1845 49.1411 10.3596 49.086 10.497 48.9739C10.5531 48.9099 10.5957 48.8352 10.6221 48.7542C10.6485 48.6733 10.6583 48.5879 10.6509 48.5031V48.223C10.6586 47.7937 10.4509 47.5936 10.0077 47.5936V47.5967ZM10.0077 48.9247C9.69222 48.9247 9.56912 48.8077 9.56912 48.5046V48.2245C9.56912 47.9168 9.68761 47.8044 10.0077 47.8044C10.3277 47.8044 10.4416 47.9183 10.4416 48.2245V48.5046C10.4416 48.8077 10.3231 48.9216 10.0077 48.9216V48.9247ZM10.0077 47.8106C9.69222 47.8106 9.57527 47.9229 9.57527 48.2245V48.5046C9.57527 48.8031 9.69684 48.9185 10.0077 48.9185C10.3185 48.9185 10.4355 48.8062 10.4355 48.5046V48.2245C10.4355 47.9199 10.3185 47.8075 10.0077 47.8075V47.8106Z" fill="#009EDB"/>
<path d="M11.7543 48.2133C11.7543 47.8193 11.9666 47.59 12.4237 47.59C12.513 47.588 12.6021 47.6015 12.6868 47.6301C12.7591 47.6531 12.7776 47.6747 12.7776 47.7439V47.7793C12.7776 47.8547 12.7591 47.8763 12.6868 47.8516C12.6041 47.8233 12.5172 47.8093 12.4298 47.8101C12.0928 47.8101 11.9789 47.9424 11.9789 48.2225V48.5133C11.9789 48.8211 12.1144 48.9242 12.4406 48.9242C12.5318 48.9259 12.6228 48.9129 12.7099 48.8857C12.7791 48.8611 12.7991 48.8857 12.7991 48.9611V48.9904C12.7991 49.0534 12.7791 49.0781 12.7037 49.0981C12.6136 49.1262 12.5196 49.1397 12.4252 49.1381C11.9636 49.1381 11.7466 48.9396 11.7466 48.5149L11.7543 48.2133Z" fill="#009EDB"/>
<path d="M12.433 49.1359C12.2483 49.1515 12.0647 49.0965 11.919 48.9821C11.8589 48.9199 11.8128 48.8456 11.7839 48.7641C11.7549 48.6826 11.7438 48.5958 11.7513 48.5097V48.2142C11.7456 48.1301 11.7573 48.0457 11.7857 47.9663C11.814 47.8869 11.8583 47.8141 11.9159 47.7526C12.057 47.6332 12.2394 47.5741 12.4237 47.5879C12.5136 47.5865 12.603 47.6 12.6884 47.6279C12.7638 47.6525 12.7807 47.6756 12.7807 47.7449V47.7803C12.7807 47.8233 12.7807 47.8464 12.7592 47.8587C12.7376 47.8711 12.7223 47.868 12.6869 47.8587C12.6042 47.8304 12.5173 47.8163 12.4299 47.8172C12.1113 47.8172 11.9821 47.9357 11.9821 48.2265V48.5173C11.9821 48.8143 12.1083 48.9251 12.4437 48.9251C12.535 48.9272 12.626 48.9142 12.713 48.8867C12.7453 48.8744 12.7684 48.8744 12.7823 48.8867C12.7961 48.899 12.8053 48.9221 12.8053 48.9667V48.9959C12.8053 49.0605 12.7838 49.0867 12.7084 49.1067C12.6186 49.1302 12.5257 49.1401 12.433 49.1359ZM12.4237 47.5971C11.9882 47.5971 11.7574 47.8126 11.7574 48.2127V48.5081C11.7574 48.9313 11.9713 49.1236 12.433 49.1236C12.5272 49.1251 12.6211 49.1121 12.7115 49.0852C12.7838 49.0652 12.8038 49.0436 12.8038 48.9805V48.9513C12.8038 48.9097 12.8038 48.8867 12.7838 48.8759C12.7638 48.8651 12.7515 48.8759 12.7192 48.8759C12.6316 48.9034 12.5401 48.9164 12.4483 48.9144C12.1083 48.9144 11.9759 48.7989 11.9759 48.5004V48.2096C11.9759 47.9141 12.1067 47.7941 12.4376 47.7941C12.5255 47.7933 12.6129 47.8073 12.6961 47.8357C12.7299 47.848 12.7515 47.848 12.7638 47.8357C12.7761 47.8233 12.7823 47.8049 12.7823 47.7633V47.7341C12.7823 47.6679 12.7669 47.6464 12.6946 47.6233C12.6066 47.5983 12.515 47.5884 12.4237 47.5941V47.5971Z" fill="#009EDB"/>
<path d="M13.2422 48.5705C13.2422 48.8075 13.3407 48.9183 13.6454 48.9183C13.9501 48.9183 14.044 48.8106 14.044 48.5705V47.7165C14.044 47.6426 14.0655 47.6211 14.1409 47.6211H14.1732C14.2548 47.6211 14.2702 47.6426 14.2702 47.7165V48.5705C14.2702 48.9337 14.087 49.1322 13.6454 49.1322C13.2038 49.1322 13.0176 48.946 13.0176 48.5705V47.7165C13.0176 47.6426 13.0376 47.6211 13.113 47.6211H13.1453C13.2269 47.6211 13.2422 47.6426 13.2422 47.7165V48.5705Z" fill="#009EDB"/>
<path d="M13.6456 49.1364C13.227 49.1364 13.0146 48.9456 13.0146 48.5717V47.7176C13.0146 47.6407 13.0377 47.6191 13.1131 47.6191H13.1454C13.2316 47.6191 13.2455 47.6438 13.2455 47.7176V48.5717C13.2455 48.8194 13.3578 48.9163 13.6456 48.9163C13.9333 48.9163 14.041 48.8225 14.041 48.5717V47.7176C14.041 47.6422 14.0641 47.6191 14.141 47.6191H14.1734C14.258 47.6191 14.2734 47.6438 14.2734 47.7176V48.5717C14.2785 48.6483 14.2675 48.7252 14.241 48.7973C14.2145 48.8694 14.1731 48.9351 14.1195 48.9902C13.9858 49.0974 13.8164 49.1497 13.6456 49.1364ZM13.1131 47.6268C13.0408 47.6268 13.0208 47.6453 13.0208 47.7192V48.5732C13.0145 48.65 13.0249 48.7272 13.0515 48.7995C13.0781 48.8718 13.1201 48.9374 13.1747 48.9917C13.3067 49.0923 13.4707 49.1415 13.6363 49.1302C13.8073 49.1454 13.9776 49.0942 14.1118 48.9871C14.1653 48.933 14.2067 48.8681 14.2333 48.7967C14.2598 48.7253 14.2709 48.6492 14.2657 48.5732V47.7192C14.2657 47.6484 14.2518 47.6268 14.1718 47.6268H14.1441C14.0703 47.6268 14.0503 47.6468 14.0503 47.7192V48.5732C14.0503 48.8256 13.9379 48.924 13.6486 48.924C13.3593 48.924 13.2424 48.8256 13.2424 48.5732V47.7192C13.2424 47.6484 13.2301 47.6268 13.1485 47.6268H13.1131Z" fill="#009EDB"/>
<path d="M14.5718 48.5022V48.2221C14.5718 47.802 14.7887 47.5912 15.2304 47.5912C15.692 47.5912 15.8859 47.8112 15.8859 48.2221V48.5022C15.8859 48.9228 15.6674 49.1331 15.2304 49.1331C14.7595 49.1331 14.5718 48.913 14.5718 48.5022ZM15.6612 48.2221C15.6612 47.9343 15.5581 47.8051 15.2304 47.8051C14.9026 47.8051 14.7949 47.9343 14.7949 48.2221V48.5022C14.7949 48.7899 14.9042 48.9192 15.2304 48.9192C15.5566 48.9192 15.6612 48.7899 15.6612 48.5022V48.2221ZM15.018 47.1988C15.0904 47.088 15.1319 47.0449 15.2304 47.0449C15.3289 47.0449 15.372 47.0757 15.4443 47.1988L15.5581 47.3758C15.5951 47.4296 15.5828 47.445 15.5197 47.445H15.4951C15.4698 47.4487 15.444 47.4439 15.4217 47.4314C15.3994 47.4189 15.3819 47.3993 15.372 47.3758L15.3027 47.2588C15.2545 47.1737 15.2068 47.1737 15.1596 47.2588L15.0934 47.3758C15.083 47.3993 15.0652 47.4187 15.0427 47.4312C15.0202 47.4437 14.9943 47.4486 14.9688 47.445H14.9426C14.8795 47.445 14.8703 47.4265 14.9042 47.3758L15.018 47.1988ZM15.1288 49.4008C15.1405 49.3803 15.1568 49.3627 15.1764 49.3495C15.1959 49.3362 15.2183 49.3277 15.2417 49.3244C15.2651 49.3212 15.289 49.3235 15.3114 49.331C15.3338 49.3385 15.3542 49.351 15.371 49.3677C15.3878 49.3844 15.4005 49.4046 15.4081 49.427C15.4158 49.4494 15.4182 49.4732 15.4152 49.4966C15.4122 49.5201 15.4038 49.5425 15.3907 49.5622C15.3776 49.5819 15.3601 49.5983 15.3396 49.6101C15.3111 49.6369 15.2734 49.6519 15.2342 49.6519C15.1951 49.6519 15.1574 49.6369 15.1288 49.6101C15.1024 49.5816 15.0878 49.5443 15.0878 49.5055C15.0878 49.4667 15.1024 49.4293 15.1288 49.4008Z" fill="#009EDB"/>
<path d="M15.2351 49.6563C15.2056 49.6553 15.177 49.6459 15.1527 49.6291C15.1284 49.6123 15.1095 49.5889 15.0981 49.5617C15.0868 49.5344 15.0835 49.5045 15.0887 49.4754C15.0939 49.4463 15.1073 49.4194 15.1274 49.3977C15.1561 49.3693 15.1948 49.3533 15.2351 49.3531C15.2755 49.3533 15.3142 49.3693 15.3429 49.3977C15.3706 49.4264 15.3861 49.4648 15.3861 49.5047C15.3861 49.5446 15.3706 49.5829 15.3429 49.6116C15.3142 49.6401 15.2755 49.6561 15.2351 49.6563ZM15.2351 49.3593C15.2159 49.359 15.1968 49.3627 15.1791 49.3701C15.1614 49.3775 15.1453 49.3885 15.132 49.4024C15.1184 49.4157 15.1076 49.4318 15.1005 49.4496C15.0933 49.4673 15.0899 49.4863 15.0905 49.5055C15.0903 49.5245 15.0938 49.5435 15.101 49.5612C15.1081 49.5789 15.1187 49.595 15.132 49.6086C15.1603 49.6341 15.1971 49.6482 15.2351 49.6482C15.2732 49.6482 15.31 49.6341 15.3382 49.6086C15.3645 49.5806 15.3793 49.5438 15.3798 49.5055C15.38 49.4863 15.3764 49.4674 15.3692 49.4496C15.362 49.4319 15.3514 49.4158 15.338 49.4022C15.3245 49.3886 15.3085 49.3778 15.2909 49.3704C15.2732 49.3631 15.2543 49.3593 15.2351 49.3593ZM15.2351 49.1361C14.7827 49.1361 14.5735 48.9346 14.5735 48.5022V48.2221C14.5672 48.1358 14.5785 48.0492 14.6068 47.9674C14.6352 47.8857 14.6798 47.8105 14.7381 47.7466C14.8778 47.6332 15.0558 47.5781 15.2351 47.5927C15.6845 47.5927 15.8937 47.7943 15.8937 48.2267V48.5068C15.8891 48.9223 15.6675 49.1361 15.2305 49.1361H15.2351ZM15.2351 47.5974C15.0573 47.5833 14.8809 47.6384 14.7427 47.7512C14.6847 47.8143 14.6403 47.8887 14.6122 47.9697C14.5841 48.0507 14.573 48.1366 14.5796 48.2221V48.5022C14.5796 48.93 14.7873 49.1285 15.2351 49.1285C15.412 49.1423 15.5874 49.0872 15.7245 48.9746C15.7822 48.9113 15.8265 48.8369 15.8545 48.7559C15.8825 48.675 15.8938 48.5892 15.8876 48.5037V48.2236C15.883 47.7943 15.6829 47.5943 15.2305 47.5943L15.2351 47.5974ZM15.2351 48.9253C14.9274 48.9253 14.7966 48.8084 14.7966 48.5052V48.2252C14.7966 47.9174 14.9166 47.8051 15.2351 47.8051C15.5537 47.8051 15.6691 47.919 15.6691 48.2252V48.5052C15.6645 48.8084 15.5475 48.9223 15.2305 48.9223L15.2351 48.9253ZM15.2351 47.8112C14.9274 47.8112 14.8027 47.9236 14.8027 48.2252V48.5052C14.8027 48.8038 14.9243 48.9192 15.2351 48.9192C15.546 48.9192 15.6629 48.8068 15.6629 48.5052V48.2252C15.6583 47.9205 15.5429 47.8082 15.2305 47.8082L15.2351 47.8112ZM15.5244 47.4512H15.4998C15.4739 47.455 15.4475 47.4501 15.4247 47.4373C15.4018 47.4245 15.3839 47.4045 15.3736 47.3804L15.3044 47.2634C15.2813 47.2219 15.2582 47.2019 15.2367 47.2019C15.2136 47.2019 15.1905 47.2219 15.1674 47.2634L15.1013 47.3804C15.0907 47.4046 15.0725 47.4246 15.0494 47.4374C15.0263 47.4502 14.9997 47.4551 14.9735 47.4512H14.9474C14.9135 47.4512 14.8966 47.4512 14.8904 47.4342C14.8843 47.4173 14.8904 47.405 14.9074 47.3773L15.0212 47.1988C15.092 47.0895 15.1351 47.0449 15.2351 47.0449C15.3352 47.0449 15.3782 47.0742 15.4521 47.1988L15.566 47.3773C15.5844 47.405 15.5906 47.4219 15.5844 47.4342C15.5783 47.4465 15.5552 47.4481 15.5198 47.4481L15.5244 47.4512ZM15.2367 47.1957C15.2613 47.1957 15.2859 47.2173 15.3105 47.2604L15.3798 47.3773C15.3894 47.4003 15.4065 47.4195 15.4282 47.4317C15.4499 47.444 15.4751 47.4487 15.4998 47.445H15.5244C15.5568 47.445 15.5737 47.445 15.5783 47.4312C15.5829 47.4173 15.5783 47.4065 15.5598 47.3804L15.446 47.2034C15.3752 47.0865 15.3336 47.0495 15.2351 47.0495C15.1367 47.0495 15.0966 47.0865 15.0259 47.2034L14.912 47.3804C14.8951 47.405 14.8904 47.4219 14.8951 47.4312C14.8997 47.4404 14.9166 47.445 14.9474 47.445H14.9735C14.9986 47.4486 15.0242 47.4439 15.0464 47.4317C15.0686 47.4195 15.0862 47.4004 15.0966 47.3773L15.1628 47.2604C15.1813 47.2142 15.2074 47.1926 15.2321 47.1926L15.2367 47.1957Z" fill="#009EDB"/>
<path d="M16.1766 48.2132C16.1766 47.8193 16.389 47.59 16.846 47.59C16.9354 47.5882 17.0244 47.6017 17.1092 47.63C17.1815 47.6531 17.1999 47.6746 17.1999 47.7439V47.7793C17.1999 47.8547 17.1815 47.8762 17.1092 47.8516C17.0264 47.8235 16.9396 47.8094 16.8522 47.8101C16.5152 47.8101 16.4013 47.9424 16.4013 48.2225V48.5133C16.4013 48.821 16.5367 48.9241 16.8629 48.9241C16.9542 48.9258 17.0451 48.9128 17.1322 48.8857C17.2015 48.8611 17.2215 48.8857 17.2215 48.9611V48.9903C17.2215 49.0534 17.2015 49.078 17.1261 49.098C17.0359 49.1261 16.9419 49.1396 16.8476 49.138C16.3859 49.138 16.1689 48.9395 16.1689 48.5148L16.1766 48.2132Z" fill="#009EDB"/>
<path d="M16.8555 49.1359C16.6709 49.1514 16.4872 49.0964 16.3415 48.982C16.2812 48.92 16.2349 48.8457 16.206 48.7641C16.177 48.6826 16.166 48.5958 16.1738 48.5096V48.2141C16.168 48.1301 16.1794 48.0458 16.2075 47.9664C16.2355 47.887 16.2796 47.8142 16.3369 47.7525C16.4788 47.6334 16.6615 47.5743 16.8463 47.5878C16.9361 47.5864 17.0255 47.6 17.1109 47.6279C17.1848 47.6525 17.2033 47.6756 17.2033 47.7448V47.7802C17.2033 47.8248 17.2033 47.8464 17.1817 47.8587C17.1602 47.871 17.1448 47.8679 17.1094 47.8587C17.0267 47.8303 16.9398 47.8163 16.8524 47.8171C16.5339 47.8171 16.4046 47.9356 16.4046 48.2265V48.5173C16.4046 48.8143 16.5308 48.9251 16.8663 48.9251C16.9575 48.9272 17.0485 48.9142 17.1355 48.8866C17.1679 48.8743 17.1909 48.8743 17.2048 48.8866C17.2186 48.8989 17.2279 48.922 17.2279 48.9666V48.9959C17.2279 49.0605 17.2063 49.0866 17.1309 49.1066C17.0411 49.1302 16.9483 49.14 16.8555 49.1359ZM16.8463 47.5971C16.4092 47.5971 16.18 47.8125 16.18 48.2126V48.5081C16.18 48.9312 16.3938 49.1236 16.8555 49.1236C16.9497 49.125 17.0437 49.1121 17.134 49.0851C17.2063 49.0651 17.2263 49.0436 17.2263 48.9805V48.9512C17.2263 48.9097 17.2263 48.8866 17.2063 48.8758C17.1863 48.8651 17.174 48.8758 17.1417 48.8758C17.0541 48.9034 16.9626 48.9164 16.8709 48.9143C16.5308 48.9143 16.3985 48.7989 16.3985 48.5004V48.2095C16.3985 47.9141 16.5293 47.794 16.8524 47.794C16.9403 47.7932 17.0277 47.8073 17.1109 47.8356C17.1448 47.8479 17.1663 47.8494 17.1786 47.8356C17.1909 47.8217 17.1971 47.8048 17.1971 47.7633V47.734C17.1971 47.6679 17.1817 47.6463 17.1094 47.6232C17.0239 47.5991 16.935 47.5892 16.8463 47.594V47.5971Z" fill="#009EDB"/>
<path d="M18.2251 48.9396C18.2251 48.8642 18.2481 48.8457 18.3205 48.8611C18.4644 48.9006 18.6129 48.9208 18.7621 48.9211C18.9945 48.9211 19.0883 48.8795 19.0883 48.7503C19.0883 48.6533 19.0391 48.5964 18.8944 48.5333L18.5282 48.3594C18.3358 48.2671 18.2481 48.1763 18.2481 47.9686C18.2481 47.7085 18.4174 47.59 18.7806 47.59C18.9075 47.5877 19.034 47.607 19.1545 47.647C19.2268 47.6716 19.2453 47.69 19.2453 47.7593V47.7793C19.2453 47.8547 19.2176 47.8732 19.1483 47.8516C19.0276 47.8127 18.9013 47.7935 18.7744 47.7947C18.5559 47.7947 18.4666 47.8424 18.4666 47.9624C18.4666 48.0471 18.5205 48.1163 18.6205 48.1609L19.0037 48.3363C19.2053 48.4318 19.3022 48.5241 19.3022 48.738C19.3022 49.0057 19.1222 49.1258 18.7359 49.1258C18.5925 49.1257 18.4496 49.1066 18.3112 49.0688C18.2358 49.0473 18.2158 49.0196 18.2158 48.9565L18.2251 48.9396Z" fill="#009EDB"/>
<path d="M18.7449 49.1358C18.6009 49.1357 18.4576 49.1165 18.3186 49.0789C18.2448 49.0573 18.2217 49.0312 18.2217 48.9635V48.9404C18.2217 48.9004 18.2217 48.8773 18.2432 48.865C18.2648 48.8527 18.2817 48.8511 18.3202 48.865C18.4641 48.9044 18.6126 48.9245 18.7618 48.925C18.9972 48.925 19.0849 48.8788 19.0849 48.7573C19.0849 48.6649 19.0403 48.6142 18.8926 48.5434L18.5264 48.3695C18.3432 48.2802 18.2448 48.1925 18.2448 47.9756C18.2448 47.7155 18.414 47.5939 18.7803 47.5939C18.9077 47.5916 19.0347 47.6109 19.1557 47.6509C19.2281 47.6755 19.2481 47.694 19.2481 47.7663V47.7801C19.2481 47.8201 19.2481 47.8432 19.225 47.8555C19.2129 47.8611 19.1998 47.8639 19.1865 47.8639C19.1732 47.8639 19.1601 47.8611 19.148 47.8555C19.0272 47.8169 18.901 47.7977 18.7741 47.7986C18.5571 47.7986 18.4663 47.8448 18.4663 47.9632C18.4663 48.0463 18.5187 48.1171 18.6202 48.1587L19.0019 48.3341C19.1988 48.4264 19.3096 48.5188 19.3096 48.7388C19.3142 49.0112 19.1342 49.1358 18.7449 49.1358ZM18.2832 48.8604C18.2712 48.8595 18.2593 48.8627 18.2494 48.8696C18.2371 48.8804 18.2309 48.9019 18.2309 48.9404V48.9635C18.2309 49.0266 18.2525 49.0527 18.3232 49.0727C18.4617 49.1099 18.6046 49.1285 18.7479 49.1281C19.1373 49.1281 19.3112 49.0112 19.3112 48.745C19.3112 48.528 19.2065 48.4372 19.0142 48.3449L18.631 48.171C18.5248 48.1217 18.4771 48.0556 18.4771 47.9694C18.4771 47.8463 18.5618 47.7986 18.7849 47.7986C18.9123 47.7977 19.039 47.8169 19.1603 47.8555C19.1957 47.8663 19.2188 47.8663 19.2327 47.8555C19.2465 47.8448 19.2527 47.8232 19.2527 47.7863V47.7601C19.2527 47.6909 19.2342 47.6755 19.165 47.6509C19.0444 47.6109 18.918 47.5916 18.791 47.5939C18.4294 47.5939 18.2617 47.714 18.2617 47.9694C18.2617 48.1833 18.3556 48.2679 18.5402 48.3572L18.9049 48.5326C19.0588 48.6034 19.1019 48.6557 19.1019 48.7511C19.1019 48.8788 19.0126 48.925 18.7726 48.925C18.6228 48.9247 18.4738 48.9045 18.3294 48.865L18.2832 48.8604Z" fill="#009EDB"/>
<path d="M19.6021 48.502V48.222C19.6021 47.8019 19.8206 47.5911 20.2622 47.5911C20.7238 47.5911 20.9177 47.8111 20.9177 48.222V48.502C20.9177 48.9226 20.6992 49.133 20.2622 49.133C19.7944 49.133 19.6021 48.9129 19.6021 48.502ZM20.6931 48.222C20.6931 47.9342 20.59 47.805 20.2622 47.805C19.9344 47.805 19.8267 47.9342 19.8267 48.222V48.502C19.8267 48.7898 19.936 48.9191 20.2622 48.9191C20.5884 48.9191 20.6931 48.7898 20.6931 48.502V48.222ZM20.0498 47.1987C20.1222 47.0879 20.1637 47.0448 20.2622 47.0448C20.3607 47.0448 20.4038 47.0756 20.4761 47.1987L20.59 47.3756C20.6269 47.4295 20.6146 47.4449 20.5515 47.4449H20.5269C20.5016 47.4486 20.4758 47.4438 20.4535 47.4313C20.4312 47.4188 20.4137 47.3992 20.4038 47.3756L20.3345 47.2587C20.2863 47.1735 20.2386 47.1735 20.1914 47.2587L20.1252 47.3756C20.1148 47.3991 20.097 47.4186 20.0745 47.4311C20.052 47.4436 20.0261 47.4484 20.0006 47.4449H19.9744C19.9113 47.4449 19.9021 47.4264 19.936 47.3756L20.0498 47.1987ZM20.8192 47.0186C20.8062 47.0412 20.7873 47.0599 20.7646 47.0726C20.7418 47.0853 20.716 47.0917 20.69 47.091H20.6592C20.59 47.091 20.5807 47.0756 20.6146 47.0156L20.7408 46.7724C20.7516 46.7416 20.7729 46.7155 20.8011 46.6989C20.8293 46.6823 20.8624 46.6762 20.8946 46.6816H20.9146C20.9962 46.6816 21.0085 46.7001 20.9623 46.7694L20.8192 47.0186Z" fill="#009EDB"/>
<path d="M20.2621 49.1356C19.8097 49.1356 19.5989 48.934 19.5989 48.5016V48.2215C19.5925 48.1351 19.6039 48.0483 19.6325 47.9665C19.6611 47.8847 19.7062 47.8096 19.7651 47.746C19.9048 47.6327 20.0828 47.5775 20.2621 47.5922C20.7115 47.5922 20.9207 47.7937 20.9207 48.2262V48.5062C20.9146 48.9217 20.6992 49.1356 20.2621 49.1356ZM20.2621 47.5968C20.0839 47.583 19.9071 47.638 19.7682 47.7507C19.7104 47.814 19.6662 47.8884 19.6382 47.9693C19.6101 48.0503 19.5989 48.1361 19.6051 48.2215V48.5016C19.6051 48.9294 19.8143 49.1279 20.2621 49.1279C20.439 49.1418 20.6144 49.0866 20.7515 48.974C20.8092 48.9107 20.8534 48.8363 20.8815 48.7554C20.9095 48.6744 20.9208 48.5886 20.9146 48.5031V48.2231C20.9146 47.7937 20.7068 47.5937 20.2621 47.5937V47.5968ZM20.2621 48.9248C19.9544 48.9248 19.8236 48.8078 19.8236 48.5047V48.2246C19.8236 47.9169 19.9421 47.8045 20.2621 47.8045C20.5822 47.8045 20.6961 47.9184 20.6961 48.2246V48.5047C20.6961 48.8078 20.5776 48.9217 20.2621 48.9217V48.9248ZM20.2621 47.8107C19.9544 47.8107 19.8297 47.923 19.8297 48.2246V48.5047C19.8297 48.8032 19.9513 48.9186 20.2621 48.9186C20.573 48.9186 20.6899 48.8063 20.6899 48.5047V48.2246C20.6899 47.9199 20.573 47.8076 20.2621 47.8076V47.8107ZM20.5514 47.4506H20.5268C20.5009 47.4544 20.4745 47.4495 20.4517 47.4367C20.4288 47.4239 20.4109 47.4039 20.4006 47.3798L20.3314 47.2629C20.2852 47.1798 20.2406 47.1813 20.1944 47.2629L20.1283 47.3798C20.1173 47.4037 20.099 47.4235 20.076 47.4362C20.053 47.4489 20.0266 47.454 20.0005 47.4506H19.9744C19.9405 47.4506 19.9221 47.4506 19.9159 47.4337C19.9097 47.4167 19.9159 47.4044 19.9328 47.3767L20.0467 47.1982C20.119 47.089 20.1621 47.0444 20.2621 47.0444C20.3622 47.0444 20.4052 47.0736 20.4791 47.1982L20.5914 47.3767C20.6114 47.4044 20.6176 47.4214 20.6114 47.4337C20.6053 47.446 20.5868 47.4475 20.5514 47.4475V47.4506ZM20.2621 47.1952C20.2883 47.1952 20.3129 47.2167 20.3375 47.2598L20.4068 47.3767C20.4164 47.3997 20.4335 47.4189 20.4552 47.4312C20.4769 47.4434 20.5021 47.4481 20.5268 47.4444H20.5514C20.5837 47.4444 20.6007 47.4444 20.6053 47.4306C20.6099 47.4167 20.6053 47.406 20.5868 47.3798L20.473 47.2028C20.4006 47.0859 20.3591 47.049 20.2621 47.049C20.1652 47.049 20.1236 47.0859 20.0529 47.2028L19.939 47.3798C19.9221 47.4044 19.9159 47.4214 19.9221 47.4306C19.9282 47.4398 19.9436 47.4444 19.9744 47.4444H20.0005C20.0254 47.4479 20.0507 47.4432 20.0727 47.431C20.0946 47.4188 20.112 47.3997 20.1221 47.3767L20.1883 47.2598C20.2129 47.2146 20.2375 47.1921 20.2621 47.1921V47.1952ZM20.6868 47.0967H20.6561C20.6176 47.0967 20.5991 47.0967 20.5914 47.0797C20.5837 47.0628 20.5914 47.049 20.6084 47.0167L20.7345 46.7735C20.7456 46.7427 20.7669 46.7167 20.795 46.6999C20.823 46.683 20.8561 46.6764 20.8884 46.6812H20.9146C20.9592 46.6812 20.9808 46.6812 20.9884 46.7012C20.9961 46.7212 20.9885 46.7366 20.9638 46.7735L20.8099 47.0228C20.7972 47.0442 20.7792 47.0619 20.7577 47.0743C20.7361 47.0867 20.7117 47.0934 20.6868 47.0936V47.0967ZM20.8884 46.6874C20.8563 46.6808 20.8229 46.6863 20.7945 46.7027C20.7662 46.7192 20.7448 46.7455 20.7345 46.7766L20.6084 47.0197C20.5899 47.049 20.5853 47.0659 20.5914 47.0767C20.5976 47.0874 20.6145 47.0905 20.6499 47.0905H20.6807C20.7061 47.0912 20.7313 47.0849 20.7535 47.0725C20.7757 47.06 20.7941 47.0418 20.8069 47.0197L20.9608 46.7704C20.9838 46.7351 20.9915 46.7151 20.9854 46.7043C20.9792 46.6935 20.9577 46.6874 20.9161 46.6874H20.8884Z" fill="#009EDB"/>
<path d="M21.4611 49.0114C21.4611 49.0914 21.4457 49.1068 21.3641 49.1068H21.3318C21.2564 49.1068 21.2349 49.0914 21.2349 49.0114V48.1589C21.2349 47.7819 21.4457 47.5957 21.8627 47.5957C22.3059 47.5957 22.489 47.7942 22.489 48.1589V49.0114C22.489 49.0914 22.4736 49.1068 22.392 49.1068H22.3566C22.2751 49.1068 22.2597 49.0914 22.2597 49.0114V48.1589C22.2597 47.9173 22.1674 47.8096 21.8627 47.8096C21.558 47.8096 21.4611 47.9204 21.4611 48.1589V49.0114Z" fill="#009EDB"/>
<path d="M22.3922 49.105H22.3568C22.2737 49.105 22.2568 49.0881 22.2568 49.0066V48.1541C22.2568 47.9017 22.1506 47.8078 21.8628 47.8078C21.5751 47.8078 21.4643 47.9048 21.4643 48.1541V49.0112C21.4643 49.0927 21.4489 49.1097 21.3643 49.1097H21.332C21.2581 49.1097 21.2319 49.0958 21.2319 49.0112V48.1587C21.2319 47.7832 21.4443 47.5924 21.8628 47.5924C22.0362 47.5773 22.2088 47.6296 22.3445 47.7386C22.3982 47.7939 22.4396 47.8599 22.4661 47.9323C22.4926 48.0046 22.5036 48.0818 22.4984 48.1587V49.0112C22.4922 49.0881 22.4753 49.105 22.3922 49.105ZM21.8628 47.8017C22.1552 47.8017 22.2629 47.8971 22.2629 48.1541V49.0112C22.2629 49.0897 22.2768 49.1035 22.3568 49.1035H22.3922C22.4722 49.1035 22.4861 49.0897 22.4861 49.0112V48.1587C22.4913 48.0825 22.4803 48.006 22.4538 47.9344C22.4273 47.8628 22.3858 47.7976 22.3322 47.7432C22.1976 47.6355 22.0268 47.5837 21.8551 47.5986C21.6894 47.588 21.5254 47.6377 21.3935 47.7386C21.3393 47.7935 21.2974 47.8594 21.2709 47.9319C21.2443 48.0044 21.2337 48.0817 21.2396 48.1587V49.0112C21.2396 49.0912 21.2596 49.1035 21.332 49.1035H21.3643C21.4443 49.1035 21.4581 49.0897 21.4581 49.0112V48.1587C21.4581 47.9002 21.572 47.8017 21.8628 47.8017Z" fill="#009EDB"/>
<path d="M24.0479 48.1481C24.0479 48.4959 23.8417 48.6698 23.4324 48.6698C23.3261 48.6653 23.2197 48.6735 23.1154 48.6944C23.0946 48.6981 23.0758 48.7091 23.0626 48.7255C23.0493 48.7419 23.0424 48.7626 23.043 48.7837C23.043 48.8267 23.0677 48.8529 23.1184 48.8683C23.2202 48.8839 23.3233 48.8901 23.4262 48.8868C23.6027 48.871 23.7802 48.9029 23.9402 48.9791C23.9906 49.0143 24.0307 49.0625 24.0561 49.1185C24.0816 49.1746 24.0915 49.2364 24.0848 49.2976C24.0916 49.3653 24.0811 49.4336 24.0541 49.4961C24.0272 49.5585 23.9848 49.6131 23.9309 49.6546C23.7741 49.7373 23.5967 49.7731 23.4201 49.7577C23.2409 49.7736 23.0609 49.7378 22.9015 49.6546C22.8545 49.6188 22.8171 49.572 22.7924 49.5183C22.7677 49.4647 22.7566 49.4058 22.7599 49.3469C22.7561 49.2829 22.7698 49.2191 22.7997 49.1624C22.8295 49.1057 22.8743 49.0583 22.9292 49.0252C22.891 49.0085 22.8588 48.9805 22.8368 48.9451C22.8148 48.9097 22.8041 48.8684 22.8061 48.8267C22.8061 48.6944 22.8861 48.6159 23.0492 48.5913C22.9656 48.5554 22.8959 48.4935 22.8504 48.4147C22.8049 48.336 22.7861 48.2446 22.7968 48.1543V48.1174C22.7968 47.7896 23.0277 47.5972 23.4124 47.5972C23.518 47.5959 23.6227 47.6163 23.7201 47.6573L23.8925 47.5034C23.9432 47.4572 23.9663 47.4572 24.0156 47.5034L24.0356 47.5234C24.0848 47.5695 24.0848 47.5926 24.0356 47.6419L23.9002 47.7788C23.9451 47.8222 23.9802 47.8748 24.003 47.9329C24.0258 47.9911 24.0359 48.0534 24.0325 48.1158L24.0479 48.1481ZM23.1338 49.0714C23.0881 49.0933 23.0501 49.1286 23.0248 49.1725C22.9996 49.2165 22.9882 49.2671 22.9923 49.3176C22.9923 49.5115 23.1031 49.5638 23.4262 49.5638C23.7494 49.5638 23.8586 49.5115 23.8586 49.3084C23.8586 49.1053 23.7478 49.0868 23.4262 49.0868C23.3285 49.0875 23.2308 49.0819 23.1338 49.0699V49.0714ZM23.8201 48.1127C23.8201 47.9004 23.6878 47.7942 23.4262 47.7942C23.1646 47.7942 23.0277 47.9004 23.0277 48.1127V48.1497C23.0277 48.3651 23.1246 48.4728 23.4262 48.4728C23.7278 48.4728 23.8201 48.3651 23.8201 48.1497V48.1127Z" fill="#009EDB"/>
<path d="M23.4259 49.761C23.2462 49.7776 23.0656 49.7418 22.9058 49.6579C22.8574 49.6212 22.819 49.5729 22.794 49.5176C22.769 49.4622 22.7583 49.4015 22.7627 49.3409C22.7587 49.2773 22.7721 49.2138 22.8013 49.1572C22.8306 49.1005 22.8747 49.0529 22.9289 49.0193C22.8914 49.0019 22.86 48.9738 22.8386 48.9384C22.8172 48.903 22.8068 48.8621 22.8089 48.8208C22.8089 48.69 22.8873 48.61 23.0428 48.5838C22.9616 48.546 22.8945 48.4835 22.8508 48.4054C22.8072 48.3272 22.7893 48.2373 22.7996 48.1484V48.1114C22.7965 48.0391 22.8096 47.9669 22.8381 47.9003C22.8666 47.8337 22.9098 47.7744 22.9643 47.7267C23.0974 47.6283 23.2606 47.5794 23.4259 47.5882C23.5316 47.5866 23.6364 47.6071 23.7337 47.6483L23.9045 47.4944C23.9568 47.4482 23.9814 47.4482 24.0322 47.4944L24.0522 47.5159C24.0784 47.5405 24.0891 47.5575 24.0891 47.5744C24.0891 47.5913 24.0784 47.6113 24.0522 47.6375L23.9183 47.7729C23.9627 47.8166 23.9974 47.8693 24.0199 47.9274C24.0425 47.9854 24.0524 48.0477 24.0491 48.1099V48.1468C24.0491 48.4946 23.8398 48.6716 23.4244 48.6716C23.3181 48.6672 23.2117 48.6755 23.1074 48.6962C23.0874 48.6999 23.0695 48.7106 23.0567 48.7264C23.044 48.7422 23.0374 48.7621 23.0381 48.7824C23.0381 48.8239 23.0612 48.8501 23.1105 48.8639C23.2123 48.8796 23.3153 48.8858 23.4182 48.8824C23.5954 48.8665 23.7735 48.8989 23.9337 48.9762C23.9862 49.0104 24.0284 49.0583 24.0555 49.1147C24.0827 49.1712 24.0938 49.234 24.0876 49.2963C24.0948 49.3645 24.0844 49.4333 24.0575 49.4964C24.0306 49.5594 23.988 49.6145 23.9337 49.6564C23.7779 49.7391 23.6017 49.7754 23.4259 49.761ZM23.4259 47.5944C23.0381 47.5944 22.8104 47.7883 22.8104 48.1114V48.1484C22.8003 48.238 22.819 48.3286 22.8638 48.4069C22.9087 48.4852 22.9773 48.5471 23.0597 48.5838C22.9058 48.6085 22.8196 48.6839 22.8196 48.8162C22.8173 48.8573 22.8277 48.8982 22.8495 48.9332C22.8712 48.9681 22.9033 48.9955 22.9412 49.0116C22.8867 49.0446 22.8423 49.0919 22.8127 49.1483C22.7832 49.2047 22.7696 49.2681 22.7735 49.3317C22.7698 49.3905 22.7807 49.4494 22.8051 49.503C22.8295 49.5567 22.8667 49.6035 22.9135 49.6395C23.0726 49.722 23.252 49.7572 23.4305 49.741C23.6065 49.7566 23.7833 49.7214 23.9399 49.6395C23.9935 49.5981 24.0358 49.5438 24.0627 49.4816C24.0896 49.4194 24.1003 49.3514 24.0938 49.284C24.1007 49.2234 24.091 49.162 24.0658 49.1065C24.0406 49.0509 24.0008 49.0033 23.9506 48.9685C23.7914 48.8918 23.6142 48.8598 23.4382 48.8762C23.3353 48.8795 23.2323 48.8733 23.1305 48.8578C23.0781 48.8424 23.0535 48.8147 23.0535 48.77C23.0528 48.7484 23.0598 48.7271 23.0734 48.7102C23.0869 48.6933 23.1061 48.6817 23.1274 48.6777C23.2322 48.6571 23.3391 48.6488 23.4459 48.6531C23.6101 48.6649 23.7733 48.6192 23.9076 48.5238C23.9609 48.4748 24.0025 48.4143 24.0292 48.3468C24.0558 48.2794 24.0668 48.2068 24.0614 48.1345V48.0976C24.0649 48.0358 24.055 47.974 24.0324 47.9164C24.0099 47.8588 23.9751 47.8067 23.9306 47.7637L24.0661 47.6252C24.0907 47.6006 24.1014 47.5836 24.1014 47.5682C24.1014 47.5529 24.0907 47.5359 24.0661 47.5128L24.0461 47.4913C23.9983 47.4482 23.9768 47.4482 23.9276 47.4913L23.7537 47.6452C23.6496 47.6039 23.5376 47.5866 23.4259 47.5944ZM23.4259 49.5656C23.0905 49.5656 22.9889 49.5071 22.9889 49.3163C22.9845 49.2651 22.9959 49.2139 23.0215 49.1693C23.0471 49.1248 23.0856 49.0891 23.132 49.067C23.2291 49.078 23.3267 49.0832 23.4244 49.0824C23.746 49.0824 23.8599 49.1163 23.8599 49.3071C23.8599 49.4979 23.7568 49.5656 23.4259 49.5656ZM23.1335 49.0732C23.0885 49.0949 23.0511 49.1297 23.0264 49.1732C23.0017 49.2166 22.9907 49.2665 22.9951 49.3163C22.9951 49.5025 23.0951 49.5594 23.4259 49.5594C23.7568 49.5594 23.8552 49.501 23.8552 49.3071C23.8552 49.1132 23.7491 49.0886 23.4259 49.0886C23.3282 49.0893 23.2306 49.0842 23.1335 49.0732ZM23.4259 48.4746C23.1412 48.4746 23.0243 48.3807 23.0243 48.1484V48.1114C23.0243 47.896 23.1551 47.7898 23.4259 47.7898C23.6967 47.7898 23.8229 47.8991 23.8229 48.1114V48.1484C23.8229 48.3838 23.7121 48.4746 23.4259 48.4746ZM23.4259 47.796C23.1597 47.796 23.0304 47.8991 23.0304 48.1037V48.1407C23.0304 48.3684 23.1443 48.4607 23.4259 48.4607C23.7075 48.4607 23.8168 48.3715 23.8168 48.1407V48.1037C23.8168 47.9022 23.6844 47.796 23.4259 47.796Z" fill="#009EDB"/>
<path d="M26.7023 47.3693C26.7023 47.4324 26.6808 47.4524 26.6177 47.4524H26.4377V48.5049C26.4377 48.922 26.2192 49.1328 25.7791 49.1328C25.339 49.1328 25.1235 48.922 25.1235 48.5049V48.2249C25.1235 47.8022 25.3287 47.5909 25.7391 47.5909C25.8301 47.5798 25.9224 47.5945 26.0054 47.6334C26.0884 47.6723 26.1587 47.7339 26.2084 47.811V47.4524H25.7991C25.7298 47.4524 25.7144 47.4324 25.7144 47.3693V47.3447C25.7144 47.2831 25.7298 47.2616 25.7991 47.2616H26.2084V47.0969C26.2084 47.0154 26.2222 47 26.3038 47H26.3376C26.4115 47 26.4331 47.0154 26.4331 47.0969V47.2616H26.6131C26.6762 47.2616 26.6977 47.2831 26.6977 47.3447L26.7023 47.3693ZM25.3482 48.5019C25.3482 48.7896 25.4482 48.9189 25.7791 48.9189C26.1099 48.9189 26.213 48.7896 26.213 48.5019V48.2218C26.213 47.9341 26.1068 47.8048 25.7791 47.8048C25.4513 47.8048 25.3482 47.9341 25.3482 48.2218V48.5019Z" fill="#009EDB"/>
<path d="M25.7791 49.1363C25.5986 49.1527 25.419 49.0974 25.279 48.9824C25.2227 48.9182 25.18 48.8432 25.1536 48.762C25.1271 48.6808 25.1174 48.595 25.1251 48.51V48.2299C25.1115 48.0568 25.1668 47.8854 25.279 47.7529C25.3419 47.6979 25.4151 47.6559 25.4943 47.6295C25.5736 47.6031 25.6573 47.5927 25.7406 47.599C25.8294 47.5896 25.9191 47.6042 26.0003 47.6413C26.0815 47.6784 26.1512 47.7366 26.2023 47.8098V47.4667H25.796C25.7283 47.4667 25.7083 47.4482 25.7083 47.3805V47.3559C25.7083 47.2882 25.7283 47.2682 25.796 47.2682H26.2023V47.1143C26.2023 47.0297 26.2176 47.0143 26.3007 47.0143H26.3346C26.4085 47.0143 26.4331 47.0281 26.4331 47.1143V47.2682H26.61C26.6747 47.2682 26.6978 47.2912 26.6978 47.3559V47.3805C26.6978 47.4451 26.6747 47.4667 26.61 47.4667H26.4331V48.5161C26.4408 48.9239 26.2192 49.1363 25.7791 49.1363ZM25.7437 47.5975C25.6603 47.5904 25.5764 47.6004 25.497 47.6269C25.4177 47.6533 25.3445 47.6957 25.2821 47.7513C25.2265 47.816 25.1843 47.8911 25.1579 47.9722C25.1315 48.0533 25.1214 48.1388 25.1282 48.2238V48.5038C25.1211 48.5872 25.1311 48.6711 25.1576 48.7505C25.184 48.8299 25.2264 48.903 25.2821 48.9655C25.4206 49.0799 25.5986 49.1352 25.7776 49.1193C25.9553 49.1331 26.1316 49.078 26.27 48.9655C26.3273 48.9038 26.3713 48.831 26.3994 48.7516C26.4275 48.6722 26.4389 48.5878 26.4331 48.5038V47.4482H26.6162C26.6778 47.4482 26.6978 47.4297 26.6978 47.3682V47.3436C26.6978 47.282 26.6778 47.2636 26.6162 47.2636H26.4331V47.0958C26.4331 47.0143 26.4131 47.002 26.3408 47.002H26.3069C26.2284 47.002 26.2146 47.0158 26.2146 47.0958V47.2636H25.8022C25.7329 47.2636 25.7206 47.2851 25.7206 47.3436V47.3682C25.7206 47.4282 25.7329 47.4482 25.8022 47.4482H26.2146V47.8221V47.8114C26.1645 47.7345 26.0938 47.6733 26.0105 47.6349C25.9271 47.5965 25.8347 47.5825 25.7437 47.5944V47.5975ZM25.7791 48.9255C25.4621 48.9255 25.3451 48.8116 25.3451 48.5054V48.2253C25.3451 47.9175 25.4667 47.8052 25.7791 47.8052C26.0915 47.8052 26.2161 47.9222 26.2161 48.2253V48.5054C26.2161 48.8054 26.0945 48.9224 25.7791 48.9224V48.9255ZM25.7791 47.8114C25.4713 47.8114 25.3513 47.9268 25.3513 48.2253V48.5054C25.3513 48.8131 25.4667 48.9193 25.7791 48.9193C26.0915 48.9193 26.21 48.807 26.21 48.5054V48.2253C26.21 47.9206 26.093 47.8083 25.7791 47.8083V47.8114Z" fill="#009EDB"/>
<path d="M26.7407 48.5008V48.2208C26.7407 47.8007 26.9592 47.5898 27.4009 47.5898C27.7332 47.5898 27.9225 47.7022 28.0072 47.9176C28.0549 47.8976 28.0979 47.8391 28.0979 47.6776C28.0979 47.6329 28.1149 47.6206 28.1657 47.6206H28.218C28.2688 47.6206 28.2811 47.6329 28.2811 47.6776C28.2811 47.9207 28.1841 48.0376 28.0456 48.0807C28.052 48.1271 28.0551 48.1739 28.0549 48.2208V48.5008C28.0549 48.9214 27.8369 49.1317 27.4009 49.1317C26.9331 49.1317 26.7407 48.9117 26.7407 48.5008ZM27.8302 48.2208C27.8302 47.933 27.7271 47.8037 27.4009 47.8037C27.0746 47.8037 26.9654 47.933 26.9654 48.2208V48.5008C26.9654 48.7886 27.0746 48.9178 27.4009 48.9178C27.7271 48.9178 27.8302 48.7886 27.8302 48.5008V48.2208Z" fill="#009EDB"/>
<path d="M27.4007 49.1356C26.9483 49.1356 26.7375 48.934 26.7375 48.5016V48.2215C26.7312 48.1353 26.7426 48.0486 26.7709 47.9669C26.7992 47.8851 26.8439 47.81 26.9022 47.7461C27.0424 47.6326 27.221 47.5775 27.4007 47.5922C27.727 47.5922 27.9209 47.6968 28.0086 47.9184C28.067 47.8922 28.0947 47.8138 28.0947 47.683C28.0947 47.6368 28.1117 47.623 28.1655 47.623H28.2178C28.2702 47.623 28.284 47.6353 28.284 47.683C28.284 47.903 28.2055 48.0384 28.0501 48.0877C28.0533 48.1338 28.0533 48.1801 28.0501 48.2262V48.5062C28.0578 48.9217 27.8393 49.1356 27.4007 49.1356ZM27.4007 47.5968C27.2225 47.583 27.0457 47.6381 26.9068 47.7507C26.8491 47.814 26.8048 47.8884 26.7768 47.9693C26.7487 48.0503 26.7375 48.1361 26.7437 48.2215V48.5016C26.7437 48.9294 26.9514 49.1279 27.4007 49.1279C27.5771 49.1415 27.7519 49.0864 27.8885 48.974C27.9466 48.9109 27.991 48.8366 28.0191 48.7556C28.0471 48.6745 28.0582 48.5886 28.0517 48.5032V48.2231C28.0519 48.1763 28.0488 48.1295 28.0424 48.0831C28.1963 48.0354 28.2748 47.9015 28.2748 47.683C28.2748 47.6399 28.264 47.6291 28.2148 47.6291H28.1624C28.1132 47.6291 28.0978 47.6414 28.0978 47.683C28.0978 47.8199 28.0686 47.8984 28.0055 47.9261C27.9178 47.6984 27.7254 47.5937 27.4007 47.5937V47.5968ZM27.4007 48.9248C27.0853 48.9248 26.9622 48.8078 26.9622 48.5047V48.2246C26.9622 47.9169 27.0807 47.8045 27.4007 47.8045C27.7208 47.8045 27.8331 47.9184 27.8331 48.2246V48.5047C27.8393 48.8078 27.7162 48.9217 27.4007 48.9217V48.9248ZM27.4007 47.8107C27.0853 47.8107 26.9683 47.923 26.9683 48.2246V48.5047C26.9683 48.8032 27.0899 48.9186 27.4007 48.9186C27.7116 48.9186 27.827 48.8063 27.827 48.5047V48.2246C27.827 47.9199 27.7116 47.8076 27.4007 47.8076V47.8107Z" fill="#009EDB"/>
<path d="M28.5993 49.0114C28.5993 49.0914 28.5839 49.1068 28.5023 49.1068H28.47C28.3946 49.1068 28.373 49.0914 28.373 49.0114V48.1589C28.373 47.7819 28.5839 47.5957 29.0009 47.5957C29.4441 47.5957 29.6272 47.7942 29.6272 48.1589V49.0114C29.6272 49.0914 29.6118 49.1068 29.5302 49.1068H29.4948C29.4133 49.1068 29.3979 49.0914 29.3979 49.0114V48.1589C29.3979 47.9173 29.3056 47.8096 29.0009 47.8096C28.6962 47.8096 28.5993 47.9204 28.5993 48.1589V49.0114Z" fill="#009EDB"/>
<path d="M29.5318 49.105H29.4964C29.4133 49.105 29.3964 49.0881 29.3964 49.0066V48.1541C29.3964 47.9017 29.2887 47.8078 29.0025 47.8078C28.7163 47.8078 28.6039 47.9048 28.6039 48.1541V49.0112C28.6039 49.0927 28.587 49.1097 28.5039 49.1097H28.4716C28.3962 49.1097 28.3716 49.0958 28.3716 49.0112V48.1587C28.3716 47.7832 28.5839 47.5924 29.0025 47.5924C29.1759 47.5773 29.3484 47.6296 29.4841 47.7386C29.5378 47.7939 29.5793 47.8599 29.6058 47.9323C29.6323 48.0046 29.6433 48.0818 29.638 48.1587V49.0112C29.6303 49.0881 29.6134 49.105 29.5318 49.105ZM29.0025 47.8017C29.2933 47.8017 29.4026 47.8971 29.4026 48.1541V49.0112C29.4026 49.0897 29.4164 49.1035 29.4964 49.1035H29.5318C29.6103 49.1035 29.6257 49.0897 29.6257 49.0112V48.1587C29.632 48.083 29.6222 48.0069 29.597 47.9353C29.5718 47.8637 29.5318 47.7983 29.4795 47.7432C29.345 47.6355 29.1742 47.5837 29.0025 47.5986C28.8367 47.5877 28.6726 47.6375 28.5408 47.7386C28.4863 47.7933 28.4444 47.8592 28.4178 47.9317C28.3912 48.0043 28.3807 48.0817 28.387 48.1587V49.0112C28.387 49.0912 28.4085 49.1035 28.4808 49.1035H28.5132C28.5932 49.1035 28.607 49.0897 28.607 49.0112V48.1587C28.5962 47.9002 28.7101 47.8017 29.001 47.8017H29.0025Z" fill="#009EDB"/>
<path d="M31.9941 48.1481C31.9941 48.4959 31.7895 48.6698 31.3786 48.6698C31.2718 48.6652 31.1649 48.6735 31.0601 48.6944C31.0393 48.6981 31.0206 48.7091 31.0073 48.7255C30.994 48.7419 30.9871 48.7626 30.9878 48.7837C30.9878 48.8267 31.0124 48.8529 31.0632 48.8683C31.1675 48.8843 31.2731 48.8905 31.3786 48.8868C31.5551 48.871 31.7326 48.9029 31.8926 48.9791C31.9425 49.0147 31.9821 49.063 32.0072 49.119C32.0324 49.175 32.0422 49.2366 32.0357 49.2976C32.0431 49.3646 32.0336 49.4324 32.0081 49.4947C31.9825 49.5571 31.9418 49.6121 31.8895 49.6546C31.7326 49.7373 31.5553 49.7731 31.3786 49.7577C31.199 49.7737 31.0185 49.7379 30.8585 49.6546C30.8116 49.6188 30.7741 49.572 30.7495 49.5183C30.7248 49.4647 30.7136 49.4058 30.7169 49.3469C30.7131 49.2829 30.7268 49.2191 30.7567 49.1624C30.7865 49.1057 30.8313 49.0583 30.8862 49.0252C30.848 49.0085 30.8158 48.9805 30.7938 48.9451C30.7719 48.9097 30.7611 48.8684 30.7631 48.8267C30.7631 48.6944 30.8431 48.6159 31.0062 48.5913C30.9227 48.5554 30.8529 48.4935 30.8075 48.4147C30.762 48.336 30.7432 48.2446 30.7539 48.1543V48.1174C30.7539 47.7896 30.9847 47.5972 31.3786 47.5972C31.4842 47.5959 31.589 47.6163 31.6864 47.6573L31.8587 47.5034C31.9095 47.4572 31.9326 47.4572 31.9803 47.5034L32.0003 47.5234C32.0495 47.5695 32.0495 47.5926 32.0003 47.6419L31.8664 47.7788C31.9108 47.8225 31.9455 47.8752 31.968 47.9333C31.9906 47.9914 32.0005 48.0536 31.9972 48.1158L31.9941 48.1481ZM31.0801 49.0714C31.0344 49.0933 30.9964 49.1286 30.9711 49.1725C30.9458 49.2165 30.9345 49.2671 30.9385 49.3176C30.9385 49.5115 31.0493 49.5638 31.374 49.5638C31.6987 49.5638 31.8064 49.5115 31.8064 49.3084C31.8064 49.1053 31.6956 49.0868 31.374 49.0868C31.2727 49.088 31.1714 49.0823 31.0709 49.0699L31.0801 49.0714ZM31.7679 48.1127C31.7679 47.9004 31.6356 47.7942 31.374 47.7942C31.1124 47.7942 30.9739 47.9004 30.9739 48.1127V48.1497C30.9739 48.3651 31.0709 48.4728 31.374 48.4728C31.6772 48.4728 31.7679 48.3651 31.7679 48.1497V48.1127Z" fill="#009EDB"/>
<path d="M31.3679 49.7602C31.1877 49.7768 31.0066 49.741 30.8462 49.6571C30.7979 49.6204 30.7594 49.5721 30.7345 49.5168C30.7095 49.4614 30.6987 49.4007 30.7031 49.3401C30.6991 49.2765 30.7125 49.213 30.7418 49.1564C30.771 49.0997 30.8151 49.0521 30.8693 49.0185C30.8318 49.0011 30.8004 48.973 30.779 48.9376C30.7576 48.9022 30.7473 48.8613 30.7493 48.82C30.7493 48.6892 30.8278 48.6092 30.9847 48.583C30.9032 48.5456 30.8356 48.4833 30.7916 48.4051C30.7476 48.3268 30.7296 48.2367 30.7401 48.1476V48.1106C30.7369 48.0381 30.7502 47.9658 30.779 47.8992C30.8077 47.8326 30.8513 47.7733 30.9062 47.7259C31.0392 47.6273 31.2026 47.5783 31.3679 47.5874C31.4735 47.5856 31.5784 47.6061 31.6756 47.6475L31.8464 47.4936C31.8988 47.4474 31.9234 47.4474 31.9742 47.4936L31.9942 47.5151C32.0203 47.5397 32.0311 47.5567 32.0311 47.5736C32.0311 47.5905 32.0219 47.6105 31.9942 47.6367L31.8603 47.7721C31.9052 47.8155 31.9403 47.868 31.9631 47.9262C31.986 47.9843 31.996 48.0467 31.9926 48.1091V48.146C31.9926 48.4938 31.7818 48.6708 31.3679 48.6708C31.2611 48.6664 31.1542 48.6746 31.0493 48.6954C31.0294 48.6991 31.0114 48.7098 30.9987 48.7256C30.986 48.7414 30.9794 48.7613 30.9801 48.7816C30.9801 48.8231 31.0032 48.8493 31.0524 48.8631C31.1568 48.8792 31.2624 48.8853 31.3679 48.8816C31.545 48.8658 31.7232 48.8982 31.8834 48.9754C31.9341 49.0108 31.9743 49.0592 31.9998 49.1156C32.0252 49.1719 32.035 49.2341 32.028 49.2955C32.0349 49.3637 32.0244 49.4324 31.9975 49.4954C31.9706 49.5584 31.9282 49.6135 31.8741 49.6556C31.7186 49.7373 31.5431 49.7736 31.3679 49.7602ZM31.3679 47.5936C30.9786 47.5936 30.7524 47.7875 30.7524 48.1106V48.1476C30.7421 48.2374 30.761 48.3282 30.8061 48.4066C30.8513 48.4849 30.9203 48.5468 31.0032 48.583H31.014H31.0016C30.8478 48.6077 30.7616 48.6831 30.7616 48.8154C30.7597 48.8565 30.7703 48.8971 30.792 48.932C30.8137 48.9669 30.8455 48.9944 30.8832 49.0108C30.8287 49.0438 30.7843 49.0911 30.7547 49.1475C30.7251 49.2039 30.7116 49.2673 30.7154 49.3309C30.7121 49.3897 30.723 49.4485 30.7474 49.5021C30.7718 49.5557 30.8089 49.6026 30.8555 49.6387C31.0152 49.721 31.195 49.7562 31.374 49.7402C31.5496 49.7561 31.7259 49.7208 31.8818 49.6387C31.9355 49.5973 31.9777 49.543 32.0047 49.4808C32.0316 49.4186 32.0423 49.3506 32.0357 49.2832C32.0427 49.2226 32.033 49.1612 32.0078 49.1057C31.9826 49.0501 31.9428 49.0025 31.8926 48.9677C31.7339 48.8911 31.5573 48.8592 31.3817 48.8754C31.2757 48.8792 31.1696 48.873 31.0647 48.857C31.0124 48.8416 30.9878 48.8139 30.9878 48.7692C30.9871 48.7476 30.9941 48.7263 31.0076 48.7094C31.0212 48.6925 31.0404 48.6809 31.0617 48.6769C31.167 48.6562 31.2744 48.6479 31.3817 48.6523C31.546 48.6642 31.7092 48.6185 31.8434 48.523C31.8968 48.474 31.9383 48.4135 31.965 48.346C31.9916 48.2786 32.0027 48.206 31.9973 48.1337V48.0968C32.0011 48.035 31.9914 47.973 31.9688 47.9153C31.9462 47.8577 31.9113 47.8056 31.8665 47.7629L32.0019 47.6244C32.028 47.5998 32.0388 47.5828 32.0373 47.5674C32.0357 47.5521 32.0265 47.5351 32.0019 47.512L31.9819 47.4905C31.9342 47.4459 31.9126 47.4459 31.8634 47.4905L31.6895 47.6444C31.5872 47.6043 31.4775 47.587 31.3679 47.5936ZM31.3679 49.5648C31.0309 49.5648 30.9293 49.5063 30.9293 49.3155C30.925 49.2643 30.9363 49.2131 30.9619 49.1685C30.9875 49.124 31.026 49.0883 31.0724 49.0662C31.17 49.0773 31.2682 49.0824 31.3663 49.0816C31.6864 49.0816 31.8018 49.1155 31.8018 49.3063C31.8034 49.5248 31.6556 49.5648 31.3679 49.5648ZM31.0709 49.0724C31.0259 49.0941 30.9885 49.1289 30.9638 49.1724C30.939 49.2158 30.9281 49.2657 30.9324 49.3155C30.9324 49.5017 31.034 49.5586 31.3648 49.5586C31.6956 49.5586 31.7941 49.5002 31.7941 49.3063C31.7941 49.1124 31.6864 49.0878 31.3648 49.0878C31.2666 49.0886 31.1685 49.0834 31.0709 49.0724ZM31.3648 48.4738C31.0786 48.4738 30.9616 48.3799 30.9616 48.1476V48.1106C30.9616 47.8952 31.094 47.789 31.3648 47.789C31.6356 47.789 31.7618 47.8983 31.7618 48.1106V48.1476C31.7649 48.383 31.6526 48.4738 31.3679 48.4738H31.3648ZM31.3648 47.7952C31.0971 47.7952 30.9678 47.8983 30.9678 48.1029V48.1399C30.9678 48.3676 31.0832 48.4599 31.3648 48.4599C31.6464 48.4599 31.7557 48.3707 31.7557 48.1399V48.1029C31.7587 47.9014 31.6264 47.7952 31.3679 47.7952H31.3648Z" fill="#009EDB"/>
<path d="M32.5881 47.1636C32.5883 47.1826 32.5847 47.2015 32.5775 47.219C32.5703 47.2366 32.5596 47.2525 32.5461 47.2659C32.5326 47.2792 32.5165 47.2897 32.4989 47.2967C32.4813 47.3038 32.4624 47.3072 32.4434 47.3068C32.4044 47.3068 32.3668 47.2921 32.3383 47.2656C32.3097 47.239 32.2923 47.2026 32.2896 47.1636C32.2896 47.1228 32.3058 47.0837 32.3346 47.0548C32.3635 47.026 32.4026 47.0098 32.4434 47.0098C32.4632 47.0097 32.4828 47.0138 32.501 47.0216C32.5192 47.0294 32.5356 47.0409 32.5491 47.0553C32.5627 47.0698 32.5731 47.0868 32.5798 47.1055C32.5865 47.1241 32.5893 47.1439 32.5881 47.1636ZM32.3296 47.7207C32.3296 47.6468 32.3434 47.6253 32.425 47.6253H32.4557C32.5296 47.6253 32.5511 47.6468 32.5511 47.7207V49.0102C32.5511 49.0902 32.5296 49.1056 32.4557 49.1056H32.4219C32.3403 49.1056 32.3265 49.0902 32.3265 49.0102L32.3296 47.7207Z" fill="#009EDB"/>
<path d="M32.4557 49.1052H32.4219C32.3388 49.1052 32.3234 49.0898 32.3234 49.0067V47.7172C32.3234 47.6433 32.3373 47.6187 32.4219 47.6187H32.4557C32.5311 47.6187 32.5542 47.6418 32.5542 47.7172V49.0113C32.5573 49.0913 32.5327 49.1052 32.4557 49.1052ZM32.425 47.6264C32.3449 47.6264 32.3326 47.6464 32.3326 47.7187V49.0113C32.3326 49.0913 32.3465 49.1037 32.425 49.1037H32.4557C32.5265 49.1037 32.5481 49.0913 32.5481 49.0113V47.7218C32.5481 47.6495 32.5281 47.6295 32.4557 47.6295L32.425 47.6264ZM32.4434 47.3079C32.4039 47.3079 32.3659 47.2928 32.3373 47.2656C32.3086 47.2383 32.2915 47.2012 32.2896 47.1617C32.2896 47.1209 32.3058 47.0817 32.3346 47.0529C32.3635 47.024 32.4026 47.0078 32.4434 47.0078C32.4842 47.0078 32.5234 47.024 32.5522 47.0529C32.5811 47.0817 32.5973 47.1209 32.5973 47.1617C32.595 47.2009 32.5777 47.2377 32.5491 47.2646C32.5205 47.2915 32.4827 47.3064 32.4434 47.3063V47.3079ZM32.4434 47.017C32.4237 47.0158 32.4039 47.0186 32.3852 47.0253C32.3666 47.032 32.3496 47.0424 32.3351 47.056C32.3207 47.0696 32.3092 47.0859 32.3014 47.1041C32.2935 47.1223 32.2895 47.1419 32.2896 47.1617C32.2899 47.1812 32.2943 47.2004 32.3023 47.2181C32.3103 47.2358 32.3219 47.2518 32.3363 47.2649C32.3507 47.278 32.3677 47.288 32.3861 47.2943C32.4045 47.3007 32.424 47.3032 32.4434 47.3017C32.462 47.3021 32.4805 47.2988 32.4977 47.2919C32.515 47.2851 32.5307 47.2748 32.5439 47.2617C32.5571 47.2487 32.5676 47.2331 32.5746 47.2159C32.5817 47.1987 32.5852 47.1803 32.585 47.1617C32.5863 47.1423 32.5835 47.1229 32.577 47.1047C32.5704 47.0864 32.5602 47.0697 32.5469 47.0556C32.5337 47.0414 32.5176 47.0302 32.4998 47.0225C32.482 47.0148 32.4628 47.0108 32.4434 47.0109V47.017Z" fill="#009EDB"/>
<path d="M34.0715 48.6564C34.0715 48.9903 33.8761 49.1318 33.4422 49.1318C33.0975 49.1318 32.8774 48.9933 32.8774 48.681C32.8774 48.3686 33.0821 48.2424 33.493 48.2424H33.8407V48.0624C33.8407 47.8577 33.7022 47.7885 33.4468 47.7885C33.3356 47.7867 33.2245 47.798 33.116 47.8223C33.0452 47.8362 33.0205 47.8223 33.0205 47.7469V47.7223C33.0205 47.6531 33.039 47.6361 33.1113 47.6207C33.2182 47.5989 33.327 47.5886 33.436 47.59C33.8556 47.59 34.0659 47.7474 34.0669 48.0624L34.0715 48.6564ZM33.8407 48.4194H33.4899C33.2221 48.4194 33.099 48.4917 33.099 48.681C33.099 48.8702 33.2098 48.9364 33.436 48.9364C33.7115 48.9364 33.8407 48.8733 33.8407 48.6471V48.4194ZM33.4899 47.4515C33.4329 47.4515 33.4268 47.4315 33.4176 47.3945C33.4083 47.3114 33.4622 47.2761 33.553 47.1791C33.5636 47.1707 33.5725 47.1602 33.5791 47.1483C33.5857 47.1364 33.5899 47.1234 33.5914 47.1099C33.5914 47.0591 33.5668 47.0345 33.5376 47.0329C33.492 47.0306 33.4465 47.0396 33.4052 47.0591C33.398 47.0634 33.3898 47.066 33.3813 47.0667C33.3729 47.0674 33.3644 47.0661 33.3565 47.063C33.3487 47.0598 33.3416 47.055 33.3359 47.0487C33.3302 47.0424 33.326 47.0349 33.3237 47.0268L33.3114 47.0021C33.2945 46.9575 33.3237 46.9421 33.3545 46.9267C33.4102 46.9024 33.4706 46.8903 33.5314 46.8914C33.5604 46.8888 33.5896 46.8928 33.6168 46.9031C33.6441 46.9133 33.6687 46.9294 33.6889 46.9504C33.7091 46.9713 33.7244 46.9965 33.7336 47.0241C33.7428 47.0517 33.7458 47.081 33.7422 47.1099C33.7422 47.2422 33.5668 47.2961 33.5591 47.3945C33.5576 47.4088 33.5512 47.4222 33.5412 47.4325C33.5312 47.4428 33.518 47.4495 33.5037 47.4515H33.4899Z" fill="#009EDB"/>
<path d="M33.4418 49.1358C33.071 49.1358 32.874 48.9819 32.874 48.6819C32.874 48.3818 33.0648 48.2402 33.4895 48.2402H33.8404V48.0633C33.8404 47.874 33.7234 47.7924 33.4495 47.7924C33.3383 47.7904 33.2272 47.8018 33.1187 47.8263C33.1065 47.8314 33.0934 47.8341 33.0802 47.8341C33.067 47.8341 33.0539 47.8314 33.0418 47.8263C33.0264 47.814 33.0202 47.7909 33.0202 47.754V47.7293C33.0202 47.6601 33.0371 47.6401 33.1141 47.6247C33.2209 47.6032 33.3298 47.5929 33.4388 47.5939C33.8589 47.5939 34.0727 47.7478 34.0727 48.0694V48.6634C34.0743 48.9881 33.8789 49.1358 33.4418 49.1358ZM33.4911 48.2464C33.0679 48.2464 32.8756 48.3803 32.8756 48.6819C32.8756 48.9835 33.0695 49.1281 33.4372 49.1281C33.6034 49.1418 33.7697 49.1031 33.9127 49.0173C33.966 48.9746 34.0079 48.9194 34.0347 48.8565C34.0616 48.7937 34.0725 48.7253 34.0666 48.6572V48.0633C34.0711 47.9965 34.0595 47.9296 34.0327 47.8683C34.0059 47.8069 33.9648 47.753 33.9127 47.7109C33.7718 47.6238 33.6071 47.5829 33.4418 47.5939C33.3328 47.5929 33.224 47.6032 33.1172 47.6247C33.0448 47.6401 33.0294 47.657 33.0294 47.7232V47.7478C33.0294 47.7832 33.0294 47.8032 33.0494 47.814C33.0695 47.8247 33.0848 47.8278 33.1218 47.814C33.2303 47.7894 33.3414 47.7781 33.4526 47.7801C33.7296 47.7801 33.8496 47.8632 33.8496 48.0571V48.2418L33.4911 48.2464ZM33.4403 48.9404C33.211 48.9404 33.1002 48.8557 33.1002 48.6819C33.1002 48.508 33.2172 48.4172 33.4942 48.4172H33.8481V48.648C33.8481 48.8911 33.6865 48.9404 33.4403 48.9404ZM33.4942 48.4233C33.2218 48.4233 33.1064 48.5003 33.1064 48.6819C33.1064 48.8634 33.2156 48.9342 33.4403 48.9342C33.7327 48.9342 33.8419 48.8557 33.8419 48.648V48.4233H33.4942ZM33.4942 47.4554C33.4341 47.4554 33.428 47.4324 33.4188 47.397C33.4188 47.3246 33.4465 47.2877 33.5126 47.2215L33.5542 47.1785C33.5648 47.1703 33.5737 47.1601 33.5803 47.1485C33.5869 47.1369 33.5911 47.124 33.5926 47.1107C33.5926 47.0584 33.5665 47.0384 33.5419 47.0369H33.5326C33.4921 47.0372 33.4521 47.0467 33.4157 47.0646C33.4078 47.0689 33.3992 47.0713 33.3902 47.0718C33.3813 47.0723 33.3724 47.0708 33.3642 47.0674C33.3559 47.064 33.3485 47.0588 33.3425 47.0522C33.3365 47.0456 33.3321 47.0377 33.3295 47.0292L33.3172 47.0061C33.2987 46.9569 33.3341 46.9399 33.3618 46.9261C33.4181 46.9017 33.479 46.8897 33.5403 46.8907C33.5973 46.8892 33.6526 46.9102 33.6942 46.9492C33.7139 46.9713 33.7289 46.9971 33.7384 47.0251C33.7479 47.0531 33.7517 47.0828 33.7496 47.1123C33.7455 47.1462 33.7341 47.1789 33.7163 47.2081C33.6986 47.2372 33.6747 47.2623 33.6465 47.2816C33.608 47.3185 33.5696 47.3539 33.5665 47.3985C33.5646 47.4133 33.5578 47.4271 33.5472 47.4377C33.5366 47.4483 33.5228 47.4551 33.508 47.457L33.4942 47.4554ZM33.528 47.0292H33.5419C33.5696 47.0292 33.5988 47.0538 33.5988 47.1092C33.5952 47.1371 33.5809 47.1625 33.5588 47.18L33.5172 47.2246C33.4526 47.2892 33.4172 47.3262 33.4249 47.3939C33.4341 47.4293 33.4388 47.4477 33.4942 47.4477H33.508C33.5214 47.4458 33.5339 47.4395 33.5433 47.4297C33.5528 47.42 33.5588 47.4074 33.5603 47.3939C33.5603 47.3477 33.6019 47.3123 33.6434 47.2739C33.6708 47.255 33.6938 47.2306 33.711 47.2022C33.7283 47.1739 33.7393 47.1422 33.7434 47.1092C33.747 47.0807 33.7441 47.0518 33.7351 47.0246C33.726 46.9974 33.711 46.9725 33.691 46.9519C33.6711 46.9312 33.6468 46.9153 33.62 46.9052C33.5931 46.8952 33.5643 46.8913 33.5357 46.8938C33.4754 46.8926 33.4155 46.9047 33.3603 46.9292C33.3264 46.9461 33.3033 46.9599 33.3187 47L33.331 47.0246C33.3332 47.0323 33.3372 47.0394 33.3425 47.0453C33.3479 47.0513 33.3545 47.0559 33.3619 47.0589C33.3694 47.0619 33.3774 47.0631 33.3854 47.0625C33.3934 47.0619 33.4011 47.0594 33.408 47.0554C33.4471 47.0375 33.4897 47.0285 33.5326 47.0292H33.528Z" fill="#009EDB"/>
<path d="M34.61 49.0114C34.61 49.0914 34.5946 49.1068 34.513 49.1068H34.4807C34.4053 49.1068 34.3838 49.0914 34.3838 49.0114V48.1589C34.3838 47.7819 34.5946 47.5957 35.0116 47.5957C35.4548 47.5957 35.6379 47.7942 35.6379 48.1589V49.0114C35.6379 49.0914 35.6225 49.1068 35.541 49.1068H35.5056C35.424 49.1068 35.4086 49.0914 35.4086 49.0114V48.1589C35.4086 47.9173 35.3163 47.8096 35.0116 47.8096C34.7069 47.8096 34.61 47.9204 34.61 48.1589V49.0114Z" fill="#009EDB"/>
<path d="M35.5455 49.105H35.5101C35.427 49.105 35.4101 49.0881 35.4101 49.0066V48.1541C35.4101 47.9017 35.3039 47.8078 35.0162 47.8078C34.7284 47.8078 34.6176 47.9048 34.6176 48.1541V49.0112C34.6176 49.0927 34.6007 49.1097 34.5176 49.1097H34.4853C34.4114 49.1097 34.3853 49.0958 34.3853 49.0112V48.1587C34.3853 47.7832 34.5976 47.5924 35.0162 47.5924C35.1895 47.5773 35.3621 47.6296 35.4978 47.7386C35.5515 47.7939 35.5929 47.8599 35.6194 47.9323C35.646 48.0046 35.6569 48.0818 35.6517 48.1587V49.0112C35.6455 49.0881 35.6286 49.105 35.5455 49.105ZM35.0162 47.8017C35.307 47.8017 35.4163 47.8971 35.4163 48.1541V49.0112C35.4163 49.0897 35.4301 49.1035 35.5101 49.1035H35.5455C35.6255 49.1035 35.6394 49.0897 35.6394 49.0112V48.1587C35.6457 48.083 35.6359 48.0069 35.6107 47.9353C35.5855 47.8637 35.5455 47.7983 35.4932 47.7432C35.3587 47.6355 35.1878 47.5837 35.0162 47.5986C34.8504 47.588 34.6865 47.6377 34.5545 47.7386C34.5003 47.7935 34.4584 47.8594 34.4319 47.9319C34.4054 48.0044 34.3947 48.0817 34.4006 48.1587V49.0112C34.4006 49.0912 34.4222 49.1035 34.4945 49.1035H34.5268C34.6068 49.1035 34.6207 49.0897 34.6207 49.0112V48.1587C34.6099 47.9002 34.7253 47.8017 35.0162 47.8017Z" fill="#009EDB"/>
<path d="M36.8243 47.0969C36.8243 47.0154 36.8443 47 36.9197 47H36.9536C37.0336 47 37.049 47.0154 37.049 47.0969V47.7956C37.1035 47.7237 37.1756 47.6672 37.2583 47.6313C37.3411 47.5955 37.4317 47.5815 37.5214 47.5909C37.8907 47.5909 38.0769 47.7663 38.0769 48.1172V49.0112C38.0769 49.0912 38.0615 49.1066 37.9815 49.1066H37.9445C37.8645 49.1066 37.8491 49.0912 37.8491 49.0112V48.1495C37.8491 47.911 37.743 47.8094 37.4644 47.8094C37.1859 47.8094 37.049 47.9233 37.049 48.2003V49.0112C37.049 49.0912 37.0336 49.1066 36.9536 49.1066H36.9182C36.8428 49.1066 36.8228 49.0912 36.8228 49.0112L36.8243 47.0969Z" fill="#009EDB"/>
<path d="M37.9816 49.1042H37.9447C37.8616 49.1042 37.8462 49.0873 37.8462 49.0058V48.144C37.8462 47.904 37.7354 47.807 37.4646 47.807C37.1938 47.807 37.0522 47.9225 37.0522 48.1948V49.0104C37.0522 49.0919 37.0353 49.1089 36.9537 49.1089H36.9183C36.8444 49.1089 36.8198 49.095 36.8198 49.0104V47.0961C36.8198 47.0099 36.8429 46.9961 36.9183 46.9961H36.9522C37.0337 46.9961 37.0506 47.013 37.0506 47.0961V47.7793C37.1057 47.7112 37.1765 47.6575 37.2569 47.6229C37.3373 47.5884 37.425 47.5739 37.5123 47.5808C37.8831 47.5808 38.0709 47.7593 38.0709 48.1102V49.0104C38.0801 49.0873 38.0632 49.1042 37.9816 49.1042ZM37.4646 47.8009C37.74 47.8009 37.8524 47.8994 37.8524 48.144V49.0104C37.8524 49.0889 37.8662 49.1027 37.9447 49.1027H37.9816C38.0601 49.1027 38.0739 49.0889 38.0739 49.0104V48.121C38.0739 47.7747 37.8878 47.5978 37.5215 47.5978C37.4337 47.5904 37.3455 47.6051 37.2649 47.6406C37.1842 47.6761 37.1138 47.7312 37.0599 47.8009V47.8101V47.1007C37.0599 47.0207 37.046 47.0069 36.9676 47.0069H36.9183C36.846 47.0069 36.826 47.0192 36.826 47.1007V49.0104C36.826 49.0904 36.8475 49.1027 36.9183 49.1027H36.9522C37.0306 49.1027 37.0445 49.0889 37.0445 49.0104V48.1948C37.046 47.9178 37.1707 47.8009 37.4646 47.8009Z" fill="#009EDB"/>
<path d="M38.3955 48.5008V48.2208C38.3955 47.8007 38.614 47.5898 39.0557 47.5898C39.3896 47.5898 39.5788 47.7022 39.6635 47.9176C39.7112 47.8976 39.7543 47.8391 39.7543 47.6776C39.7543 47.6329 39.7712 47.6206 39.822 47.6206H39.8743C39.9251 47.6206 39.9374 47.6329 39.9374 47.6776C39.9374 47.9207 39.8404 48.0376 39.7019 48.0807C39.7083 48.1271 39.7114 48.1739 39.7112 48.2208V48.5008C39.7112 48.9214 39.4927 49.1317 39.0557 49.1317C38.5879 49.1317 38.3955 48.9117 38.3955 48.5008ZM39.4865 48.2208C39.4865 47.933 39.3834 47.8037 39.0557 47.8037C38.7279 47.8037 38.6202 47.933 38.6202 48.2208V48.5008C38.6202 48.7886 38.7294 48.9178 39.0557 48.9178C39.3819 48.9178 39.4865 48.7886 39.4865 48.5008V48.2208Z" fill="#009EDB"/>
<path d="M39.0554 49.1356C38.603 49.1356 38.3922 48.934 38.3922 48.5016V48.2215C38.3861 48.1351 38.3977 48.0484 38.4263 47.9667C38.4549 47.8849 38.4998 47.8098 38.5584 47.746C38.6981 47.6327 38.8761 47.5775 39.0554 47.5922C39.3832 47.5922 39.5755 47.6968 39.6709 47.9184C39.7294 47.8922 39.7571 47.8137 39.7571 47.6829C39.7571 47.6368 39.774 47.6229 39.8279 47.6229H39.8802C39.9325 47.6229 39.9464 47.6352 39.9464 47.6829C39.9464 47.903 39.8664 48.0384 39.7109 48.0876C39.7172 48.1335 39.7203 48.1798 39.7202 48.2261V48.5062C39.714 48.9217 39.4924 49.1356 39.0554 49.1356ZM39.0554 47.5968C38.8776 47.5827 38.7012 47.6378 38.563 47.7507C38.505 47.8137 38.4605 47.8881 38.4325 47.9691C38.4044 48.0501 38.3933 48.136 38.3999 48.2215V48.5016C38.3999 48.9294 38.6076 49.1279 39.0554 49.1279C39.2323 49.1418 39.4077 49.0866 39.5448 48.974C39.6025 48.9107 39.6467 48.8363 39.6748 48.7553C39.7028 48.6744 39.7141 48.5886 39.7079 48.5031V48.2231C39.708 48.1762 39.7049 48.1294 39.6986 48.083C39.8525 48.0353 39.9325 47.9015 39.9325 47.6829C39.9325 47.6399 39.9202 47.6291 39.8725 47.6291H39.8202C39.7694 47.6291 39.7556 47.6414 39.7556 47.6829C39.7556 47.8199 39.7248 47.8984 39.6632 47.9261C39.574 47.6983 39.3801 47.5937 39.0554 47.5937V47.5968ZM39.0554 48.9248C38.7477 48.9248 38.6169 48.8078 38.6169 48.5047V48.2246C38.6169 47.9168 38.7369 47.8045 39.0554 47.8045C39.3739 47.8045 39.4894 47.9184 39.4894 48.2246V48.5047C39.4894 48.8078 39.3801 48.9217 39.0554 48.9217V48.9248ZM39.0554 47.8107C38.7477 47.8107 38.623 47.923 38.623 48.2246V48.5047C38.623 48.8032 38.7446 48.9186 39.0554 48.9186C39.3663 48.9186 39.4832 48.8063 39.4832 48.5047V48.2246C39.4832 47.9199 39.3678 47.8076 39.0554 47.8076V47.8107Z" fill="#009EDB"/>
<path d="M40.256 49.0114C40.256 49.0914 40.2406 49.1068 40.159 49.1068H40.1267C40.0513 49.1068 40.0298 49.0914 40.0298 49.0114V48.1589C40.0298 47.7819 40.2406 47.5957 40.6561 47.5957C41.0993 47.5957 41.2824 47.7942 41.2824 48.1589V49.0114C41.2824 49.0914 41.267 49.1068 41.1854 49.1068H41.15C41.0685 49.1068 41.0531 49.0914 41.0531 49.0114V48.1589C41.0531 47.9173 40.9608 47.8096 40.6561 47.8096C40.3514 47.8096 40.256 47.9204 40.256 48.1589V49.0114Z" fill="#009EDB"/>
<path d="M41.1851 49.105H41.1497C41.0666 49.105 41.0497 49.0881 41.0497 49.0066V48.1541C41.0497 47.9017 40.9435 47.8078 40.6557 47.8078C40.368 47.8078 40.2587 47.9048 40.2587 48.1541V49.0112C40.2587 49.0927 40.2418 49.1097 40.1587 49.1097H40.1264C40.051 49.1097 40.0264 49.0958 40.0264 49.0112V48.1587C40.0264 47.7832 40.2387 47.5924 40.6557 47.5924C40.8291 47.5773 41.0017 47.6296 41.1374 47.7386C41.1914 47.7937 41.233 47.8596 41.2596 47.9321C41.2861 48.0045 41.2969 48.0817 41.2913 48.1587V49.0112C41.2851 49.0881 41.2682 49.105 41.1851 49.105ZM40.6557 47.8017C40.9481 47.8017 41.0558 47.8971 41.0558 48.1541V49.0112C41.0558 49.0897 41.0697 49.1035 41.1497 49.1035H41.1851C41.2651 49.1035 41.2789 49.0897 41.2789 49.0112V48.1587C41.2852 48.083 41.2755 48.0069 41.2503 47.9353C41.2251 47.8637 41.185 47.7983 41.1328 47.7432C40.9982 47.6355 40.8274 47.5837 40.6557 47.5986C40.49 47.5883 40.3262 47.638 40.1941 47.7386C40.1398 47.7935 40.098 47.8594 40.0715 47.9319C40.0449 48.0044 40.0343 48.0817 40.0402 48.1587V49.0112C40.0402 49.0912 40.0602 49.1035 40.1341 49.1035H40.1664C40.2464 49.1035 40.2603 49.0897 40.2603 49.0112V48.1587C40.2526 47.9002 40.3649 47.8017 40.6557 47.8017Z" fill="#009EDB"/>
</svg>
